<svg xmlns="http://www.w3.org/2000/svg"><defs><font horiz-adv-x="1187"><font-face ascent="1638" descent="-410" units-per-em="2048"/><missing-glyph horiz-adv-x="528"/><glyph d="M78 844v188h133v27q0 199 125 293 125 98 309 98 174 0 283-59l-68-177q-105 48-209 48-105 0-166-55.5t-61-147.5v-27h561v-1032h-213v844h-348v-844h-213v844h-133z" horiz-adv-x="1148" unicode="&#xfb01;"/><glyph d="M78 844v188h133v53q0 180 91 272.5t255 92.5h518v-1450h-213v1262h-299q-139 0-139-162v-68h227v-188h-227v-844h-213v844h-133z" horiz-adv-x="1239" unicode="&#xfb02;"/><glyph horiz-adv-x="0"/><glyph horiz-adv-x="0"/><glyph horiz-adv-x="682"/><glyph horiz-adv-x="528" unicode="&#xd;"/><glyph horiz-adv-x="528" unicode="&#x20;"/><glyph horiz-adv-x="528" unicode="&#x09;"/><glyph horiz-adv-x="528" unicode="&#xa0;"/><glyph d="M209 145q0 66 43 109 44 44 112 44t111-44q44-43 44-109t-44-110q-43-43-111-43t-112 43q-43 44-43 110zM219 1434h291l-55-981h-181z" horiz-adv-x="718" unicode="&#x21;"/><glyph d="M172 1450h266l-61-489h-144zM522 1450h266l-61-489h-143z" horiz-adv-x="960" unicode="&#x22;"/><glyph d="M139 412v168h269l55 274h-242v168h277l84 412h180l-84-412h256l84 412h180l-84-412h234v-168h-269l-55-274h242v-168h-277l-84-412h-180l84 412h-256l-84-412h-180l84 412h-234zM588 580h256l55 274h-256z" horiz-adv-x="1486" unicode="&#x23;"/><glyph d="M90 383l184 117q76-303 289-303 96 0 157.5 60.5t61.5 154.5q0 57-33.5 101.5t-87.5 75.5-119 61-130 66.5-119 81-87.5 115-33.5 160.5q0 135 80 238 79 102 207 129v178h205v-182q176-47 278-228l-182-121q-84 158-213 158-67 0-108.5-44t-41.5-111q0-132 217-234 38-17 59.5-27t59.5-29 61.5-33.5 56.5-38.5 53-45.5 43-51.5 36-61 21-69.5 8-80.5q0-166-95.5-281t-252.5-145v-178h-205v178q-142 29-239.5 132.5t-129.5 256.5z" horiz-adv-x="1097" unicode="&#x24;"/><glyph d="M113 1122q0 136 96 232t235 96q140 0 236-96t96-232q0-137-96-233-94-94-236-94-141 0-235 94-96 96-96 233zM262 27l1104 1474 119-92-1104-1475zM293 1122q0-70 41-114 40-43 110-43 71 0 111 43 41 44 41 114t-41 113q-39 45-111 45-71 0-110-45-41-43-41-113zM944 311q0 136 96 232t236 96q139 0 235-96 97-97 97-232 0-136-97-233-94-94-235-94-142 0-236 94-96 96-96 233zM1124 311q0-70 41-114 40-43 111-43 70 0 110 43 41 44 41 114t-41 113q-39 45-110 45-72 0-111-45-41-43-41-113z" horiz-adv-x="1720" unicode="&#x25;"/><glyph d="M139 416q0 297 264 450-108 147-108 279 0 125 90 215 93 90 236 90 149 0 237-88 88-85 88-199 0-230-252-362l262-342q29 45 97 235l129-145q-41-138-107-246l230-303h-240l-107 145q-62-72-170.5-116.5t-214.5-44.5q-192 0-313 118-121 121-121 314zM344 406q0-102 64-164t163-62q172 0 273 113l-322 420q-81-46-129.5-126.5t-48.5-180.5zM496 1137q0-98 75-195 174 82 174 205 0 55-33 85t-91 30q-56 0-90.5-35t-34.5-90z" horiz-adv-x="1398" unicode="&#x26;"/><glyph d="M172 1450h266l-61-489h-144z" horiz-adv-x="610" unicode="&#x27;"/><glyph d="M137 717q0 273 56 459 61 193 161 360h213q-114-172-166-362-51-182-51-457 0-274 51-459 53-189 166-360h-213q-100 167-161 360-56 186-56 459z" horiz-adv-x="622" unicode="&#x28;"/><glyph d="M55-102q110 166 164 360 53 192 53 459 0 268-53 457-54 195-164 362h213q104-174 160-360 57-180 57-459t-57-459q-56-186-160-360h-213z" horiz-adv-x="622" unicode="&#x29;"/><glyph d="M111 1102l51 174 244-80v254h180v-254l243 80 52-174-242-80 152-207-142-104-153 204-154-204-141 104 151 207z" horiz-adv-x="991" unicode="&#x2a;"/><glyph d="M123 555v188h360v361h189v-361h362v-188h-362v-362h-189v362h-360z" horiz-adv-x="1155" unicode="&#x2b;"/><glyph d="M127-270l145 532h293l-278-532h-160z" horiz-adv-x="702" unicode="&#x2c;"/><glyph d="M139 555v188h723v-188h-723z" horiz-adv-x="1001" unicode="&#x2d;"/><glyph d="M174 141q0 64 43 107 44 44 108 44t107-44q44-43 44-107t-44-108q-43-43-107-43t-108 43q-43 44-43 108z" horiz-adv-x="651" unicode="&#x2e;"/><glyph d="M27-102l893 1638h210l-892-1638h-211z" horiz-adv-x="1120" unicode="&#x2f;"/><glyph d="M131 717q0 343 133 538t383 195 383-195 133-538q0-344-133-539-132-194-383-194t-383 194q-133 195-133 539zM348 717q0-259 74-398 77-139 225-139 149 0 223 139 76 137 76 398 0 260-76 397-74 139-223 139-148 0-225-139-74-139-74-397z" horiz-adv-x="1294" unicode="&#x30;"/><glyph d="M145 967v229l398 238h88v-1434h-217v1126z" horiz-adv-x="811" unicode="&#x31;"/><glyph d="M139 0v90l529 678q66 83 90 140t24 126q0 102-50.5 160.5t-145.5 58.5q-89 0-145-59t-68-160l-205 39q9 159 127 268 121 109 291 109 185 0 299-111 116-107 116-297 0-180-118-327l-408-518h553v-197h-889z" horiz-adv-x="1177" unicode="&#x32;"/><glyph d="M121 395l211 27q40-242 258-242 117 0 186.5 74t69.5 203q0 133-69.5 206.5t-186.5 73.5q-58 0-125-28l-86 114 297 414h-486v197h799v-74l-348-475q24 6 59 6 164 0 263-123 100-118 100-311 0-206-137-340-136-133-336-133-188 0-322 116-135 117-147 295z" unicode="&#x33;"/><glyph d="M125 287v98l606 1049h230v-951h167v-196h-167v-287h-218v287h-618zM395 483h348v623z" horiz-adv-x="1247" unicode="&#x34;"/><glyph d="M154 375l211 39q18-118 79-176t156-58q114 0 177 77.5t63 209.5q0 133-62.5 210t-177.5 77q-162 0-274-148l-142 29 80 799h713v-197h-531l-43-358q86 71 209 71 211 0 328-135 117-132 117-348 0-214-125-348-123-135-332-135-185 0-305.5 104t-140.5 287z" horiz-adv-x="1185" unicode="&#x35;"/><glyph d="M150 451q0 140 69 260l426 739h242l-314-541q15 9 48 9 195 0 321-132 125-131 125-335 0-200-131-334-130-133-328-133-196 0-329 133-129 135-129 334zM367 451q0-119 67.5-195t173.5-76 174 76.5 68 194.5q0 124-66.5 197t-175.5 73-175-73-66-197z" horiz-adv-x="1183" unicode="&#x36;"/><glyph d="M106 1237v197h848v-99l-548-1335h-218l510 1237h-592z" horiz-adv-x="1007" unicode="&#x37;"/><glyph d="M147 422q0 236 197 350-143 113-143 291 0 160 114 274 113 113 291 113t291-113q115-115 115-274 0-174-144-291 197-114 197-350 0-199-133-320-130-118-326-118-195 0-325 118-134 122-134 320zM365 422q0-113 69-176 72-66 172-66t172 66q70 64 70 176 0 111-70 172-67 61-172 61-104 0-174-61-67-61-67-172zM412 1061q0-88 54.5-145.5t139.5-57.5 140 57.5 55 145.5q0 87-55.5 144t-139.5 57-139-57-55-144z" horiz-adv-x="1212" unicode="&#x38;"/><glyph d="M152 983q0 200 129 332 132 135 329 135 199 0 328-135 131-131 131-332 0-138-70-260l-426-739h-241l313 540q-13-8-47-8-197 0-322 131-124 130-124 336zM369 983q0-124 66-197t175-73 175.5 73 66.5 197q0 118-68 194t-174 76-173.5-76-67.5-194z" horiz-adv-x="1185" unicode="&#x39;"/><glyph d="M174 141q0 64 43 107 44 44 108 44t107-44q44-43 44-107t-44-108q-43-43-107-43t-108 43q-43 44-43 108zM174 802q0 64 43 107 44 44 108 44t107-44q44-43 44-107t-44-108q-43-43-107-43t-108 43q-43 44-43 108z" horiz-adv-x="651" unicode="&#x3a;"/><glyph d="M66-270l145 532h293l-279-532h-159zM174 802q0 64 43 107 44 44 108 44t107-44q44-43 44-107t-44-108q-43-43-107-43t-108 43q-43 44-43 108z" horiz-adv-x="651" unicode="&#x3b;"/><glyph d="M98 528v213l746 394v-228l-520-272 520-273v-227z" horiz-adv-x="952" unicode="&#x3c;"/><glyph d="M195 371v188h849v-188h-849zM195 711v188h849v-188h-849z" horiz-adv-x="1239" unicode="&#x3d;"/><glyph d="M109 135v227l520 273-520 272v228l745-394v-213z" horiz-adv-x="952" unicode="&#x3e;"/><glyph d="M92 1141q25 139 127.5 224t255.5 85q163 0 265-85t102-230q0-167-146-238l-231-113q-86-41-86-114 0-39 23.5-61.5t64.5-22.5q45 0 73.5 28t49.5 88l166-63q-65-215-285-215-125 0-201.5 69t-76.5 185q0 173 174 252l170 78q56 26 78 57.5t22 85.5q0 55-43 90t-107 35q-154 0-200-168zM315 145q0 66 43 109 44 44 112.5 44t111.5-44q44-43 44-109t-44-110q-43-43-111.5-43t-112.5 43q-43 44-43 110z" horiz-adv-x="933" unicode="&#x3f;"/><glyph d="M143 616q0 390 234 621 236 233 604 233 365 0 562.5-196.5t197.5-552.5q0-237-99-368.5t-268-131.5q-78 0-141.5 37.5t-89.5 99.5q-88-137-266-137-167 0-263 106.5t-96 276.5q0 194 121 324 123 129 315 129 154 0 222-103l22 88h156l-49-518-2-35q0-79 79-79 154 0 154 311 0 290-141.5 425.5t-423.5 135.5q-159 0-297-72-141-72-228.5-230t-87.5-370q0-194 91-342 173-272 520-272 77 0 147 4 66 5 160.5 31.5t185.5 72.5l72-174q-166-75-274-98-116-25-291-25-366 0-598 218-228 217-228 591zM719 598q0-84 46-136t126-52q113 0 172 76.5t59 193.5q0 91-48 139.5t-134 48.5q-100 0-160.5-73.5t-60.5-196.5z" horiz-adv-x="1863" unicode="&#x40;"/><glyph d="M18 0l498 1434h213l498-1434h-230l-118 356h-512l-119-356h-230zM434 569h377l-188 580z" horiz-adv-x="1245" unicode="&#x41;"/><glyph d="M193 0v1434h507q187 0 294.5-98.5t107.5-276.5q0-85-41.5-165t-104.5-112q103-43 161.5-139t58.5-221q0-201-118.5-311.5t-332.5-110.5h-532zM418 213h276q252 0 252 221t-252 221h-276v-442zM418 868h262q197 0 197 176 0 177-197 177h-262v-353z" horiz-adv-x="1275" unicode="&#x42;"/><glyph d="M104 717q0 345 193 538 195 195 471 195 225 0 374.5-113t205.5-321l-213-53q-56 143-142 208.5t-225 65.5q-195 0-314.5-137t-119.5-383 119.5-383 314.5-137q139 0 225 65.5t142 208.5l213-53q-56-208-205.5-321t-374.5-113q-279 0-471 192-193 193-193 541z" horiz-adv-x="1423" unicode="&#x43;"/><glyph d="M193 0v1434h421q277 0 467-187 193-187 193-530 0-344-193-531-189-186-467-186h-421zM418 213h131q80 0 149 14.5t134 50.5 111 92 73.5 144.5 27.5 202.5-27.5 202.5-73.5 144.5-111 92-134 50.5-149 14.5h-131v-1008z" horiz-adv-x="1378" unicode="&#x44;"/><glyph d="M193 0v1434h849v-213h-624v-353h504v-213h-504v-442h645v-213h-870z" horiz-adv-x="1163" unicode="&#x45;"/><glyph d="M193 0v1434h868v-213h-643v-371h518v-213h-518v-637h-225z" horiz-adv-x="1124" unicode="&#x46;"/><glyph d="M104 717q0 358 193 545 194 188 471 188 225 0 375-123 150-120 196-319l-206-64q-102 293-365 293-197 0-315.5-136.5t-118.5-383.5q0-252 117-386t317-134q155 0 246.5 90.5t105.5 236.5h-278v199h504v-723h-197l-16 178q-48-84-146.5-139t-230.5-55q-272 0-463 188-189 189-189 545z" horiz-adv-x="1474" unicode="&#x47;"/><glyph d="M193 0v1434h225v-562h581v562h226v-1434h-226v659h-581v-659h-225z" horiz-adv-x="1417" unicode="&#x48;"/><glyph d="M193 0v1434h225v-1434h-225z" horiz-adv-x="610" unicode="&#x49;"/><glyph d="M12 360l228 48q19-101 73-156t138-55q107 0 160 61t53 197v979h225v-969q0-245-123-365-122-116-315-116-187 0-299 106-117 110-140 270z" horiz-adv-x="1048" unicode="&#x4a;"/><glyph d="M193 0v1434h225v-551l512 551h274l-577-641 624-793h-288l-545 702v-702h-225z" horiz-adv-x="1271" unicode="&#x4b;"/><glyph d="M193 0v1434h225v-1221h618v-213h-843z" horiz-adv-x="1069" unicode="&#x4c;"/><glyph d="M193 0v1434h266l356-955 356 955h267v-1434h-226v967l-317-836h-160l-317 836v-967h-225z" horiz-adv-x="1630" unicode="&#x4d;"/><glyph d="M193 0v1434h241l588-1033v1033h225v-1434h-241l-588 1028v-1028h-225z" horiz-adv-x="1439" unicode="&#x4e;"/><glyph d="M104 717q0 348 189 540 190 193 469 193 280 0 467-193 190-190 190-540t-190-543q-187-190-467-190-279 0-469 190-189 195-189 543zM334 717q0-254 121-387 124-133 307-133 184 0 305 133 123 132 123 387t-123 387q-121 133-305 133-183 0-307-133-121-133-121-387z" horiz-adv-x="1523" unicode="&#x4f;"/><glyph d="M193 0v1434h514q209 0 325-119 119-119 119-305t-119-305q-116-119-325-119h-289v-586h-225zM418 799h299q97 0 151 55.5t54 155.5-54 155.5-151 55.5h-299v-422z" horiz-adv-x="1206" unicode="&#x50;"/><glyph d="M104 717q0 348 189 540 190 193 469 193 280 0 467-193 190-190 190-540 0-261-110-441l143-141-152-151-135 133q-171-133-403-133-279 0-469 190-189 195-189 543zM334 717q0-254 121-387 124-133 307-133 143 0 246 77l-174 175 151 151 154-156q51 111 51 273 0 255-123 387-121 133-305 133-183 0-307-133-121-133-121-387z" horiz-adv-x="1523" unicode="&#x51;"/><glyph d="M193 0v1434h501q200 0 312-105.5t112-290.5q0-148-72-246t-206-133l413-659h-266l-403 643h-166v-643h-225zM418 856h282q89 0 139 46t50 136-50 136.5-139 46.5h-282v-365z" horiz-adv-x="1329" unicode="&#x52;"/><glyph d="M78 383l184 117q76-303 289-303 96 0 157.5 60.5t61.5 154.5q0 57-33.5 101.5t-87.5 75.5-119 61-130 66.5-119 81-87.5 115-33.5 160.5q0 160 108 268 109 109 267 109 261 0 395-242l-182-121q-84 158-213 158-67 0-108.5-44t-41.5-111q0-132 217-234 49-22 77-35t76-39 77-48.5 65-57.5 55.5-70.5 33-83.5 13.5-102q0-195-127-316-126-120-321-120-182 0-308 109t-165 290z" horiz-adv-x="1085" unicode="&#x53;"/><glyph d="M23 1221v213h1028v-213h-402v-1221h-225v1221h-401z" horiz-adv-x="1073" unicode="&#x54;"/><glyph d="M154 516v918h225v-928q0-149 74.5-229t216.5-80 216.5 80 74.5 229v928h225v-918q0-250-146-393-145-139-370-139-229 0-373 141-143 140-143 391z" horiz-adv-x="1339" unicode="&#x55;"/><glyph d="M10 1434h242l360-1119 361 1119h241l-489-1434h-225z" horiz-adv-x="1224" unicode="&#x56;"/><glyph d="M47 1434h238l262-1115 284 963h205l285-963 262 1115h238l-379-1434h-230l-278 909-279-909h-229z" horiz-adv-x="1867" unicode="&#x57;"/><glyph d="M25 0l442 770-379 664h252l254-443 254 443h252l-379-664 442-770h-256l-313 547-313-547h-256z" unicode="&#x58;"/><glyph d="M4 1434h240l282-596 283 596h240l-410-820v-614h-225v614z" horiz-adv-x="1052" unicode="&#x59;"/><glyph d="M78 0v111l653 1110h-622v213h925v-111l-645-1110h672v-213h-983z" horiz-adv-x="1142" unicode="&#x5a;"/><glyph d="M193-102v1638h425v-193h-221v-1253h221v-192h-425z" horiz-adv-x="692" unicode="&#x5b;"/><glyph d="M-10 1536h211l893-1638h-211z" horiz-adv-x="1120" unicode="&#x5c;"/><glyph d="M74 90h221v1253h-221v193h426v-1638h-426v192z" horiz-adv-x="692" unicode="&#x5d;"/><glyph d="M111 846l391 588h180l391-588h-211l-270 399-270-399h-211z" horiz-adv-x="1183" unicode="&#x5e;"/><glyph d="M55 0h912v-188h-912v188z" horiz-adv-x="1021" unicode="&#x5f;"/><glyph d="M33 1450h289l139-303h-164z" horiz-adv-x="495" unicode="&#x60;"/><glyph d="M90 297q0 157 122 247.5t325 90.5h178v45q0 89-54.5 134.5t-146.5 45.5q-140 0-192-137l-195 41q32 131 137 208t252 77q412 0 412-408v-641h-180l-21 135q-109-151-319-151-141 0-229.5 82t-88.5 231zM315 297q0-57 33.5-91t95.5-34q109 0 189 68 82 70 82 194v23h-187q-98 0-155.5-43t-57.5-117z" horiz-adv-x="1052" unicode="&#x61;"/><glyph d="M176 0v1450h213v-532q35 49 119 90t158 41q224 0 344-141.5t120-391.5q0-254-118-393t-342-139q-90 0-170 40.5t-111 94.5v-119h-213zM377 516q0-157 74-252 74-92 190-92t190 92q74 95 74 252 0 158-74 250-73 94-190 94t-190-94q-74-92-74-250z" horiz-adv-x="1230" unicode="&#x62;"/><glyph d="M100 516q0 230 125 379 127 154 361 154 320 0 446-285l-190-82q-79 178-256 178-127 0-193.5-92t-66.5-252 66.5-252 193.5-92q177 0 256 178l190-82q-126-284-446-284-234 0-361 151-125 152-125 381z" horiz-adv-x="1110" unicode="&#x63;"/><glyph d="M100 516q0 250 120.5 391.5t344.5 141.5q74 0 158-41t119-90v532h213v-1450h-213v119q-31-54-111-94.5t-170-40.5q-224 0-342.5 139t-118.5 393zM326 516q0-158 73-252 74-92 191-92 116 0 190 92 74 95 74 252 0 158-74 250-73 94-190 94-118 0-191-94-73-91-73-250z" horiz-adv-x="1230" unicode="&#x64;"/><glyph d="M100 516q0 76 17 150t55 144 93 122.5 137 84.5 180 32q96 0 176-30t134-79.5 92-115 55.5-135 17.5-140.5v-92h-731q0-125 68.5-205t187.5-80q87 0 159.5 46.5t110.5 127.5l182-72q-79-155-182-222.5t-270-67.5q-98 0-180 32t-137 84.5-93 122-55 143.5-17 150zM330 635h501q-14 101-79 163t-170 62q-100 0-166.5-61.5t-85.5-163.5z" horiz-adv-x="1144" unicode="&#x65;"/><glyph d="M78 844v188h133v53q0 180 91 272.5t255 92.5q100 0 170-37l-43-180q-60 29-121 29-139 0-139-162v-68h227v-188h-227v-844h-213v844h-133z" horiz-adv-x="741" unicode="&#x66;"/><glyph d="M94-94q0 127 88 209-59 59-59 161 0 139 125 209-70 85-70 217 0 158 105 252 106 95 264 95 105 0 188-45l191 102 86-154-140-78q46-76 46-172 0-158-105-253-107-93-266-93-87 0-166 31-55-30-55-90 0-80 106-80h227q158 0 250-77.5t92-217.5q0-180-131-268-128-88-321-88-207 0-331 89.5t-124 250.5zM299-82q0-78 66.5-123t183.5-45q110 0 172.5 41.5t62.5 114.5q0 131-170 131h-165q-55 0-105 6-45-45-45-125zM385 702q0-75 45-121t117-46q74 0 119 46t45 121-45.5 121.5-118.5 46.5q-72 0-117-46.5t-45-121.5z" horiz-adv-x="1046" unicode="&#x67;"/><glyph d="M176 0v1450h213v-594q132 193 348 193 148 0 226.5-81t78.5-241v-727h-213v672q0 106-38.5 147t-122.5 41q-100 0-189-117-90-119-90-307v-436h-213z" horiz-adv-x="1204" unicode="&#x68;"/><glyph d="M125 1323q0 61 43 104 43 44 104.5 44t104.5-44q43-43 43-104t-43-104q-41-41-104.5-41t-106.5 41q-41 43-41 104zM166 0v1032h213v-1032h-213z" horiz-adv-x="544" unicode="&#x69;"/><glyph d="M-51-248q112 33 164.5 96.5t52.5 178.5v1005h213v-985q0-204-94-321t-283-160zM125 1323q0 61 43 104 43 44 104.5 44t104.5-44q43-43 43-104t-43-104q-41-41-104.5-41t-106.5 41q-41 43-41 104z" horiz-adv-x="544" unicode="&#x6a;"/><glyph d="M176 0v1450h213v-829l373 411h270l-432-475 459-557h-271l-399 494v-494h-213z" horiz-adv-x="1075" unicode="&#x6b;"/><glyph d="M172 0v1450h213v-1450h-213z" horiz-adv-x="555" unicode="&#x6c;"/><glyph d="M176 0v1032h213v-176q126 193 311 193 105 0 183.5-58.5t101.5-154.5q54 102 138 157.5t184 55.5q138 0 216.5-84.5t78.5-225.5v-739h-213v692q0 80-41 124t-111 44q-102 0-172-123.5t-70-322.5v-414h-213v692q0 81-40.5 124.5t-110.5 43.5q-106 0-174-126.5t-68-342.5v-391h-213z" horiz-adv-x="1763" unicode="&#x6d;"/><glyph d="M176 0v1032h213v-176q55 92 143 142.5t191 50.5q138 0 220.5-82t82.5-228v-739h-213v672q0 188-160 188-106 0-186-121-78-122-78-321v-418h-213z" unicode="&#x6e;"/><glyph d="M100 516q0 226 138 379 139 154 370 154 230 0 369-154t139-379-139-379q-138-153-369-153-232 0-370 153t-138 379zM326 516q0-143 73-244 75-100 209-100 135 0 207 100 76 101 76 244 0 141-76 242-73 102-207 102-132 0-209-102-73-101-73-242z" horiz-adv-x="1216" unicode="&#x6f;"/><glyph d="M176-418v1450h213v-119q31 54 111 95t170 41q224 0 342-139.5t118-393.5q0-250-120-391t-344-141q-88 0-162.5 36.5t-114.5 94.5v-533h-213zM377 516q0-157 74-252 74-92 190-92t190 92q74 95 74 252 0 158-74 250-73 94-190 94t-190-94q-74-92-74-250z" horiz-adv-x="1230" unicode="&#x70;"/><glyph d="M100 516q0 254 118.5 393.5t342.5 139.5q90 0 170-41t111-95v119h213v-1450h-213v533q-37-52-119-92-79-39-158-39-224 0-344.5 141.5t-120.5 390.5zM326 516q0-158 73-252 74-92 191-92 116 0 190 92 74 95 74 252 0 158-74 250-73 94-190 94-118 0-191-94-73-91-73-250z" horiz-adv-x="1230" unicode="&#x71;"/><glyph d="M176 0v1032h213v-172q50 89 133 139t172 50q67 0 131-25l-37-195q-51 31-120 31-115 0-197-125-82-122-82-352v-383h-213z" horiz-adv-x="854" unicode="&#x72;"/><glyph d="M82 260l180 98q82-186 227-186 140 0 140 135 0 50-54 82-31 21-53 29-17 8-71 28.5t-68 26.5q-221 92-221 283 0 123 90 207 89 86 227 86 93 0 174-44t131-120l-135-119q-73 94-180 94-44 0-73-27t-29-75q0-38 26-64 25-25 56.5-41.5t101.5-42.5l28-10.5t26-9.5 20.5-8 21.5-9.5 19-10 22.5-13 22.5-14.5q62-37 92.5-88.5t36.5-135.5q0-139-99-233-98-94-260-94-140 0-244 77.5t-155 198.5z" horiz-adv-x="921" unicode="&#x73;"/><glyph d="M43 844v188h172v285l213 133v-418h268v-188h-268v-504q0-168 137-168 49 0 99 29l55-181q-73-36-166-36-157 0-247.5 94.5t-90.5 273.5v492h-172z" horiz-adv-x="788" unicode="&#x74;"/><glyph d="M162 293v739h213v-672q0-188 160-188 108 0 184 119 80 121 80 323v418h213v-1032h-213v176q-55-92-143-142t-191-50q-139 0-221 81.5t-82 227.5z" unicode="&#x75;"/><glyph d="M25 1032h217l225-741 225 741h217l-342-1032h-200z" horiz-adv-x="933" unicode="&#x76;"/><glyph d="M63 1032h226l198-753 183 753h204l183-753 198 753h226l-328-1032h-195l-186 729-186-729h-195z" horiz-adv-x="1544" unicode="&#x77;"/><glyph d="M27 0l340 545-304 487h230l188-303 189 303h229l-303-487 340-545h-229l-226 360-225-360h-229z" horiz-adv-x="962" unicode="&#x78;"/><glyph d="M16 1032h226l243-694 236 694h225l-522-1450h-213l168 469z" horiz-adv-x="960" unicode="&#x79;"/><glyph d="M94 0v86l465 758h-434v188h711v-86l-465-758h487v-188h-764z" horiz-adv-x="944" unicode="&#x7a;"/><glyph d="M121 621v192q102 0 136 31.5t34 124.5v370q0 87 56.5 142t146.5 55h135v-193h-51q-44 0-63-19.5t-19-66.5v-337q0-179-150-203 150-24 150-203v-338q0-47 19-66.5t63-19.5h51v-192h-135q-90 0-146.5 54.5t-56.5 141.5v371q0 93-34 124.5t-136 31.5z" horiz-adv-x="679" unicode="&#x7b;"/><glyph d="M193-102v1638h204v-1638h-204z" horiz-adv-x="589" unicode="&#x7c;"/><glyph d="M51 90h51q44 0 63 19.5t19 66.5v338q0 179 150 203-150 24-150 203v337q0 47-19 66.5t-63 19.5h-51v193h135q90 0 146.5-55t56.5-142v-370q0-93 34-124.5t136-31.5v-192q-102 0-136-31.5t-34-124.5v-371q0-87-56.5-141.5t-146.5-54.5h-135v192z" horiz-adv-x="679" unicode="&#x7d;"/><glyph d="M158 649q39 88 120.5 147.5t170.5 59.5q91 0 215-53t190-53q107 0 188 96l115-123q-39-88-120.5-147.5t-170.5-59.5q-88 0-215 53-127 54-190 54-107 0-189-97z" horiz-adv-x="1314" unicode="&#x7e;"/><glyph d="M199 870q0 66 43 109 44 44 112 44t111-44q44-43 44-109t-44-110q-43-43-111-43t-112 43q-43 44-43 110zM209-418l55 981h180l56-981h-291z" horiz-adv-x="718" unicode="&#xa1;"/><glyph d="M117 719q0 196 96 342 100 146 283 180v297h204v-295q242-38 349-276l-191-82q-79 178-256 178-127 0-193.5-92t-66.5-252 66.5-252 193.5-92q177 0 256 178l191-82q-107-238-349-276v-295h-204v297q-184 34-283 178-96 146-96 344z" horiz-adv-x="1165" unicode="&#xa2;"/><glyph d="M84 125q121 114 173 199t52 184q0 74-18 135h-164v205h98q-28 106-28 184 0 189 112 301 114 117 297 117 149 0 257-74t155-209l-178-84q-70 162-234 162-89 0-142.5-55t-53.5-160q0-109 20-182h334v-205h-272q10-58 10-102 0-203-168-346 103 65 184 65 61 0 125-37 68-35 111-35 94 0 164 117l161-90q-66-122-140.5-176.5t-176.5-54.5q-90 0-180 34-90 37-136 37-120 0-235-71z" horiz-adv-x="1120" unicode="&#xa3;"/><glyph d="M47 270l180 138q-61 100-61 221t61 221l-180 137 170 170 137-178q92 63 221 63 130 0 222-63l137 178 170-170-180-137q62-100 62-221t-62-221l180-138-170-170-137 179q-94-64-222-64-127 0-221 64l-137-179zM377 629q0-97 53-156 56-59 145-59 91 0 144 59 55 58 55 156 0 97-55 155-54 60-144 60-88 0-145-60-53-59-53-155z" horiz-adv-x="1150" unicode="&#xa4;"/><glyph d="M20 1434h240l270-594 271 594h239l-305-631h215v-189h-307v-137h307v-188h-307v-289h-225v289h-307v188h307v137h-307v189h215z" horiz-adv-x="1060" unicode="&#xa5;"/><glyph d="M193-102v714h204v-714h-204zM193 821v715h204v-715h-204z" horiz-adv-x="589" unicode="&#xa6;"/><glyph d="M129 561q0 181 131 279-65 89-65 219 0 178 106 284 107 107 256 107 319 0 399-305l-194-66q-55 166-205 166-69 0-113.5-47t-44.5-131q0-49 17-83.5t55-65.5q58-38 76-48l108-53q106-50 123-59 209-114 209-303 0-181-131-279 66-91 66-219 0-178-107-285-106-106-256-106-319 0-399 305l194 66q55-166 205-166 69 0 113.5 47t44.5 131q0 50-16.5 84t-57.5 63q-48 36-76 49-25 13-108 52-89 44-121 61-209 114-209 303zM319 580q0-79 89-140 46-27 88-47 18-8 66-29t88-39 65-32q82 52 82 143 0 48-37.5 91t-89.5 69q-21 11-135 63-88 40-134 64-82-52-82-143z" horiz-adv-x="1091" unicode="&#xa7;"/><glyph d="M37 1333q0 55 37 92t92 37 92-37 37-92-37-92-92-37-92 37-37 92zM418 1333q0 55 37 92t92 37 92-37 37-92-37-92-92-37-92 37-37 92z" horiz-adv-x="710" unicode="&#xa8;"/><glyph d="M133 717q0 340 223 569 224 230 562 230 335 0 559-230 225-231 225-569 0-339-225-570-223-229-559-229-339 0-562 229t-223 570zM330 717q0-260 164-436 163-175 424-175 260 0 423 175 164 176 164 436t-164 436q-162 174-423 174-262 0-424-174-164-176-164-436zM510 717q0 212 119 325 120 117 289 117 142 0 243-74.5t121-201.5l-174-39q-46 143-190 143-98 0-157-71.5t-59-198.5 59-199 157-72q144 0 190 144l174-39q-20-127-121-202t-243-75q-168 0-289 115-119 116-119 328z" horiz-adv-x="1835" unicode="&#xa9;"/><glyph d="M123 852q0 123 95 194.5t255 71.5h139v35q0 71-43 106t-118 35q-120 0-154-106l-141 31q23 105 101 164t194 59q329 0 329-320v-508h-139l-18 111q-85-119-250-119-112 0-181 64t-69 182zM299 852q0-98 102-98 89 0 150 56t61 151v22h-145q-75 0-121.5-35.5t-46.5-95.5z" horiz-adv-x="907" unicode="&#xaa;"/><glyph d="M94 561v148l600 421v-219l-387-276 387-277v-219zM647 561v148l600 421v-219l-387-276 387-277v-219z" horiz-adv-x="1355" unicode="&#xab;"/><glyph d="M133 625v188h920v-522h-213v334h-707z" horiz-adv-x="1204" unicode="&#xac;"/><glyph d="M139 555v188h723v-188h-723z" horiz-adv-x="1001" unicode="&#xad;"/><glyph d="M133 717q0 340 223 569 224 230 562 230 335 0 559-230 225-231 225-569 0-339-225-570-223-229-559-229-339 0-562 229t-223 570zM330 717q0-260 164-436 163-175 424-175 260 0 423 175 164 176 164 436t-164 436q-162 174-423 174-262 0-424-174-164-176-164-436zM621 281v872h323q137 0 210-64.5t73-185.5q0-98-50.5-160t-138.5-81l260-381h-200l-250 372h-51v-372h-176zM797 817h145q111 0 111 86t-111 86h-145v-172z" horiz-adv-x="1835" unicode="&#xae;"/><glyph d="M23 1282v188h526v-188h-526z" horiz-adv-x="571" unicode="&#xaf;"/><glyph d="M129 1214q0 96 66 162t167 66q102 0 168-66t66-162q0-97-66-163-64-64-168-64-103 0-167 64-66 66-66 163zM278 1214.5q0-38.5 23-63.5 23-23 61.5-23t61.5 23q23 25 23 63.5t-23 61.5q-23 25-61.5 25t-61.5-25q-23-23-23-61.5z" horiz-adv-x="724" unicode="&#xb0;"/><glyph d="M125 0v188h911v-188h-911zM125 723v188h360v361h189v-361h362v-188h-362v-363h-189v363h-360z" horiz-adv-x="1159" unicode="&#xb1;"/><glyph d="M119 614v62l309 381q51 63 51 137 0 47-25 73.5t-67 26.5q-102 0-111-123l-149 41q11 100 83.5 165t176.5 65q117 0 186.5-66t69.5-178-80-207l-188-229h284v-148h-540z" horiz-adv-x="780" unicode="&#xb2;"/><glyph d="M119 854l143 20q7-56 44-88t89-32q115 0 115 137 0 60-30.5 92.5t-84.5 32.5q-42 0-78-25l-73 96 149 199h-239v148h471v-60l-187-246q104 0 170-69t66-174q0-129-73-204t-206-75q-118 0-194 69t-82 179z" horiz-adv-x="794" unicode="&#xb3;"/><glyph d="M35 1147l139 303h289l-264-303h-164z" horiz-adv-x="495" unicode="&#xb4;"/><glyph d="M162-418v1450h213v-672q0-188 160-188 108 0 184 119 80 121 80 323v418h213v-1032h-213v176q-119-192-334-192-38 0-90 10v-412h-213z" unicode="&#xb5;"/><glyph d="M117 1004q0 178 125 303 127 127 305 127h788v-189h-127v-1663h-213v1663h-235v-1663h-213v991q-180 0-305 125t-125 306z" horiz-adv-x="1464" unicode="&#xb6;"/><glyph d="M174 755q0 64 43 107 44 44 108 44t107-44q44-43 44-107t-44-108q-43-43-107-43t-108 43q-43 44-43 108z" horiz-adv-x="651" unicode="&#xb7;"/><glyph d="M16-399l254 276h166l-172-391z" horiz-adv-x="452" unicode="&#xb8;"/><glyph d="M111 1130v175l268 129h61v-820h-157v598z" horiz-adv-x="610" unicode="&#xb9;"/><glyph d="M131 1024q0 176 109 297t290 121q180 0 289-121t109-297-109-297-289-121q-181 0-290 121t-109 297zM307 1024q0-108 60-190 59-80 163-80 103 0 162 80 60 82 60 190t-60 190q-59 80-162 80-104 0-163-80-60-82-60-190z" horiz-adv-x="1058" unicode="&#xba;"/><glyph d="M109 139v219l387 277-387 276v219l600-421v-148zM662 139v219l387 277-387 276v219l600-421v-148z" horiz-adv-x="1355" unicode="&#xbb;"/><glyph d="M152 1130v175l268 129h61v-820h-157v598zM254 27l1104 1474 119-92-1104-1475zM922 145v72l327 602h172v-526h90v-148h-90v-145h-157v145h-342zM1112 293h152v293z" horiz-adv-x="1681" unicode="&#xbc;"/><glyph d="M152 1130v175l268 129h61v-820h-157v598zM262 27l1104 1474 119-92-1104-1475zM1135 0v61l309 381q51 63 51 138 0 47-25 73.5t-67 26.5q-102 0-111-123l-149 41q11 100 83.5 164.5t176.5 64.5q117 0 186.5-65.5t69.5-177.5-80-207l-188-230h284v-147h-540z" horiz-adv-x="1845" unicode="&#xbd;"/><glyph d="M119 854l143 20q7-56 44-88t89-32q115 0 115 137 0 60-30.5 92.5t-84.5 32.5q-42 0-78-25l-73 96 149 199h-239v148h471v-60l-187-246q104 0 170-69t66-174q0-129-73-204t-206-75q-118 0-194 69t-82 179zM311 27l1104 1474 119-92-1104-1475zM958 145v72l328 602h172v-526h90v-148h-90v-145h-158v145h-342zM1149 293h151v293z" horiz-adv-x="1669" unicode="&#xbe;"/><glyph d="M92-119q0 167 146 238l231 112q86 41 86 115 0 39-23.5 61.5t-64.5 22.5q-45 0-73.5-28.5t-49.5-88.5l-166 64q65 215 285 215 125 0 201.5-69t76.5-185q0-173-174-252l-170-78q-56-26-78-57.5t-22-85.5q0-55 42.5-90t106.5-35q155 0 201 168l195-33q-25-139-127.5-224t-255.5-85q-163 0-265 85t-102 230zM307 870q0 66 43 109 44 44 112 44t111-44q44-43 44-109t-44-110q-43-43-111-43t-112 43q-43 44-43 110z" horiz-adv-x="933" unicode="&#xbf;"/><glyph d="M18 0l498 1434h213l498-1434h-230l-118 356h-512l-119-356h-230zM330 1851h288l140-303h-164zM434 569h377l-188 580z" horiz-adv-x="1245" unicode="&#xc0;"/><glyph d="M18 0l498 1434h213l498-1434h-230l-118 356h-512l-119-356h-230zM434 569h377l-188 580zM475 1548l139 303h289l-264-303h-164z" horiz-adv-x="1245" unicode="&#xc1;"/><glyph d="M18 0l498 1434h213l498-1434h-230l-118 356h-512l-119-356h-230zM260 1561l332 360h61l332-360h-205l-157 163-158-163h-205zM434 569h377l-188 580z" horiz-adv-x="1245" unicode="&#xc2;"/><glyph d="M18 0l498 1434h213l498-1434h-230l-118 356h-512l-119-356h-230zM246 1679q33 71 99 118.5t136 47.5q78 0 148-43 71-41 121-41 68 0 135 82l116-96q-33-71-99-118.5t-136-47.5q-79 0-150 41-70 43-118 43-69 0-136-82zM434 569h377l-188 580z" horiz-adv-x="1245" unicode="&#xc3;"/><glyph d="M18 0l498 1434h213l498-1434h-230l-118 356h-512l-119-356h-230zM303 1734.5q0 55.5 37 92.5t92 37 92-37 37-92.5-37-92.5-92-37-92 37-37 92.5zM434 569h377l-188 580zM684 1734.5q0 55.5 37 92.5t92 37 92-37 37-92.5-37-92.5-92-37-92 37-37 92.5z" horiz-adv-x="1245" unicode="&#xc4;"/><glyph d="M18 0l498 1434h213l498-1434h-230l-118 356h-512l-119-356h-230zM416 1739q0 88 59.5 148.5t147.5 60.5q90 0 148-60t58-149q0-87-58-144t-148-57q-88 0-147.5 58t-59.5 143zM434 569h377l-188 580zM549 1741q0-46 36.5-65t73.5 0 37 65q4 49-35 69.5t-77.5 0-34.5-69.5z" horiz-adv-x="1245" unicode="&#xc5;"/><glyph d="M20 0l619 1434h977v-213h-625v-353h504v-213h-504v-442h645v-213h-870v356h-367l-149-356h-230zM489 569h277v580h-35z" horiz-adv-x="1736" unicode="&#xc6;"/><glyph d="M104 717q0 345 193 538 195 195 471 195 225 0 374.5-113t205.5-321l-213-53q-56 143-142 208.5t-225 65.5q-195 0-314.5-137t-119.5-383 119.5-383 314.5-137q139 0 225 65.5t142 208.5l213-53q-56-208-205.5-321t-374.5-113q-279 0-471 192-193 193-193 541zM524-399l254 276h166l-172-391z" horiz-adv-x="1423" unicode="&#xc7;"/><glyph d="M193 0v1434h849v-213h-624v-353h504v-213h-504v-442h645v-213h-870zM336 1851h289l139-303h-164z" horiz-adv-x="1163" unicode="&#xc8;"/><glyph d="M193 0v1434h849v-213h-624v-353h504v-213h-504v-442h645v-213h-870zM465 1548l139 303h289l-264-303h-164z" horiz-adv-x="1163" unicode="&#xc9;"/><glyph d="M193 0v1434h849v-213h-624v-353h504v-213h-504v-442h645v-213h-870zM260 1561l332 360h61l332-360h-205l-157 163-158-163h-205z" horiz-adv-x="1163" unicode="&#xca;"/><glyph d="M193 0v1434h849v-213h-624v-353h504v-213h-504v-442h645v-213h-870zM305 1734.5q0 55.5 37 92.5t92 37 92-37 37-92.5-37-92.5-92-37-92 37-37 92.5zM686 1734.5q0 55.5 37 92.5t92 37 92-37 37-92.5-37-92.5-92-37-92 37-37 92.5z" horiz-adv-x="1163" unicode="&#xcb;"/><glyph d="M41 1851h289l139-303h-164zM193 0v1434h225v-1434h-225z" horiz-adv-x="610" unicode="&#xcc;"/><glyph d="M143 1548l140 303h288l-264-303h-164zM193 0v1434h225v-1434h-225z" horiz-adv-x="610" unicode="&#xcd;"/><glyph d="M-45 1561l332 360h61l332-360h-205l-158 163-157-163h-205zM193 0v1434h225v-1434h-225z" horiz-adv-x="610" unicode="&#xce;"/><glyph d="M-14 1734.5q0 55.5 37 92.5t92 37 92-37 37-92.5-37-92.5-92-37-92 37-37 92.5zM193 0v1434h225v-1434h-225zM366 1734.5q0 55.5 37 92.5t92.5 37 92.5-37 37-92.5-37-92.5-92.5-37-92.5 37-37 92.5z" horiz-adv-x="610" unicode="&#xcf;"/><glyph d="M57 623v188h168v623h422q277 0 467-187 193-187 193-530 0-344-193-531-189-186-467-186h-422v623h-168zM451 213h131q80 0 149 14.5t134 50.5 111 92 73.5 144.5 27.5 202.5-27.5 202.5-73.5 144.5-111 92-134 50.5-149 14.5h-131v-410h167v-188h-167v-410z" horiz-adv-x="1411" unicode="&#xd0;"/><glyph d="M193 0v1434h241l588-1033v1033h225v-1434h-241l-588 1028v-1028h-225zM342 1679q33 71 99 118.5t137 47.5q77 0 147-43 71-41 121-41 68 0 135 82l117-96q-33-71-99-118.5t-137-47.5q-78 0-149 41-70 43-119 43-68 0-135-82z" horiz-adv-x="1439" unicode="&#xd1;"/><glyph d="M104 717q0 348 189 540 190 193 469 193 280 0 467-193 190-190 190-540t-190-543q-187-190-467-190-279 0-469 190-189 195-189 543zM334 717q0-254 121-387 124-133 307-133 184 0 305 133 123 132 123 387t-123 387q-121 133-305 133-183 0-307-133-121-133-121-387zM494 1851h288l140-303h-164z" horiz-adv-x="1523" unicode="&#xd2;"/><glyph d="M104 717q0 348 189 540 190 193 469 193 280 0 467-193 190-190 190-540t-190-543q-187-190-467-190-279 0-469 190-189 195-189 543zM334 717q0-254 121-387 124-133 307-133 184 0 305 133 123 132 123 387t-123 387q-121 133-305 133-183 0-307-133-121-133-121-387zM616 1548l140 303h288l-264-303h-164z" horiz-adv-x="1523" unicode="&#xd3;"/><glyph d="M104 717q0 348 189 540 190 193 469 193 280 0 467-193 190-190 190-540t-190-543q-187-190-467-190-279 0-469 190-189 195-189 543zM334 717q0-254 121-387 124-133 307-133 184 0 305 133 123 132 123 387t-123 387q-121 133-305 133-183 0-307-133-121-133-121-387zM399 1561l332 360h62l331-360h-204l-158 163-158-163h-205z" horiz-adv-x="1523" unicode="&#xd4;"/><glyph d="M104 717q0 348 189 540 190 193 469 193 280 0 467-193 190-190 190-540t-190-543q-187-190-467-190-279 0-469 190-189 195-189 543zM334 717q0-254 121-387 124-133 307-133 184 0 305 133 123 132 123 387t-123 387q-121 133-305 133-183 0-307-133-121-133-121-387zM385 1679q33 71 99 118.5t137 47.5q77 0 147-43 71-41 121-41 68 0 135 82l117-96q-33-71-99-118.5t-137-47.5q-78 0-149 41-70 43-119 43-68 0-135-82z" horiz-adv-x="1523" unicode="&#xd5;"/><glyph d="M104 717q0 348 189 540 190 193 469 193 280 0 467-193 190-190 190-540t-190-543q-187-190-467-190-279 0-469 190-189 195-189 543zM334 717q0-254 121-387 124-133 307-133 184 0 305 133 123 132 123 387t-123 387q-121 133-305 133-183 0-307-133-121-133-121-387zM444 1734.5q0 55.5 37 92.5t92.5 37 92.5-37 37-92.5-37-92.5-92.5-37-92.5 37-37 92.5zM825 1734.5q0 55.5 37 92.5t92.5 37 92.5-37 37-92.5-37-92.5-92.5-37-92.5 37-37 92.5z" horiz-adv-x="1523" unicode="&#xd6;"/><glyph d="M131 332l313 315-313 316 133 133 314-314 313 314 133-133-313-316 313-315-133-133-313 313-314-313z" horiz-adv-x="1155" unicode="&#xd7;"/><glyph d="M104 717q0 348 189 540 190 193 469 193 204 0 366-107l125 162 148-108-137-178q155-192 155-502 0-350-190-543-187-190-467-190-207 0-367 106l-125-162-147 109 137 178q-156 194-156 502zM334 717q0-179 72-314l587 766q-103 68-231 68-183 0-307-133-121-133-121-387zM530 264q101-67 232-67 184 0 305 133 123 132 123 387 0 184-72 313z" horiz-adv-x="1523" unicode="&#xd8;"/><glyph d="M154 516v918h225v-928q0-149 74.5-229t216.5-80 216.5 80 74.5 229v928h225v-918q0-250-146-393-145-139-370-139-229 0-373 141-143 140-143 391zM391 1851h289l139-303h-164z" horiz-adv-x="1339" unicode="&#xd9;"/><glyph d="M154 516v918h225v-928q0-149 74.5-229t216.5-80 216.5 80 74.5 229v928h225v-918q0-250-146-393-145-139-370-139-229 0-373 141-143 140-143 391zM514 1548l139 303h289l-264-303h-164z" horiz-adv-x="1339" unicode="&#xda;"/><glyph d="M154 516v918h225v-928q0-149 74.5-229t216.5-80 216.5 80 74.5 229v928h225v-918q0-250-146-393-145-139-370-139-229 0-373 141-143 140-143 391zM307 1561l332 360h61l332-360h-205l-157 163-158-163h-205z" horiz-adv-x="1339" unicode="&#xdb;"/><glyph d="M154 516v918h225v-928q0-149 74.5-229t216.5-80 216.5 80 74.5 229v928h225v-918q0-250-146-393-145-139-370-139-229 0-373 141-143 140-143 391zM352 1734.5q0 55.5 37 92.5t92 37 92-37 37-92.5-37-92.5-92-37-92 37-37 92.5zM733 1734.5q0 55.5 37 92.5t92 37 92-37 37-92.5-37-92.5-92-37-92 37-37 92.5z" horiz-adv-x="1339" unicode="&#xdc;"/><glyph d="M4 1434h240l282-596 283 596h240l-410-820v-614h-225v614zM358 1548l140 303h288l-264-303h-164z" horiz-adv-x="1052" unicode="&#xdd;"/><glyph d="M193 0v1434h225v-293h289q209 0 325-119 119-119 119-305t-119-305q-116-119-325-119h-289v-293h-225zM418 506h299q97 0 151 55.5t54 155.5-54 155.5-151 55.5h-299v-422z" horiz-adv-x="1206" unicode="&#xde;"/><glyph d="M72 690v189h98v174q0 194 113 295 114 102 288 102 186 0 286.5-103t100.5-270q0-103-49.5-172t-124.5-94q132-40 205.5-134.5t73.5-242.5q0-224-117-337t-332-113q-75 0-141 16v188q88-16 141-16 238 0 238 256 0 262-256 262h-80v189h55q90 0 138.5 50.5t48.5 141.5-50.5 141-136.5 50q-87 0-137.5-58.5t-50.5-165.5v-1038h-213v690h-98z" horiz-adv-x="1146" unicode="&#xdf;"/><glyph d="M90 297q0 157 122 247.5t325 90.5h178v45q0 89-54.5 134.5t-146.5 45.5q-140 0-192-137l-195 41q32 131 137 208t252 77q412 0 412-408v-641h-180l-21 135q-109-151-319-151-141 0-229.5 82t-88.5 231zM242 1450h288l140-303h-164zM315 297q0-57 33.5-91t95.5-34q109 0 189 68 82 70 82 194v23h-187q-98 0-155.5-43t-57.5-117z" horiz-adv-x="1052" unicode="&#xe0;"/><glyph d="M90 297q0 157 122 247.5t325 90.5h178v45q0 89-54.5 134.5t-146.5 45.5q-140 0-192-137l-195 41q32 131 137 208t252 77q412 0 412-408v-641h-180l-21 135q-109-151-319-151-141 0-229.5 82t-88.5 231zM315 297q0-57 33.5-91t95.5-34q109 0 189 68 82 70 82 194v23h-187q-98 0-155.5-43t-57.5-117zM358 1147l140 303h288l-264-303h-164z" horiz-adv-x="1052" unicode="&#xe1;"/><glyph d="M90 297q0 157 122 247.5t325 90.5h178v45q0 89-54.5 134.5t-146.5 45.5q-140 0-192-137l-195 41q32 131 137 208t252 77q412 0 412-408v-641h-180l-21 135q-109-151-319-151-141 0-229.5 82t-88.5 231zM164 1159l332 361h61l332-361h-205l-158 164-157-164h-205zM315 297q0-57 33.5-91t95.5-34q109 0 189 68 82 70 82 194v23h-187q-98 0-155.5-43t-57.5-117z" horiz-adv-x="1052" unicode="&#xe2;"/><glyph d="M90 297q0 157 122 247.5t325 90.5h178v45q0 89-54.5 134.5t-146.5 45.5q-140 0-192-137l-195 41q32 131 137 208t252 77q412 0 412-408v-641h-180l-21 135q-109-151-319-151-141 0-229.5 82t-88.5 231zM135 1278q33 71 99 118.5t137 47.5q77 0 147-43 71-41 121-41 68 0 135 82l117-96q-33-71-99-118.5t-137-47.5q-78 0-149 41-70 43-119 43-68 0-135-82zM315 297q0-57 33.5-91t95.5-34q109 0 189 68 82 70 82 194v23h-187q-98 0-155.5-43t-57.5-117z" horiz-adv-x="1052" unicode="&#xe3;"/><glyph d="M90 297q0 157 122 247.5t325 90.5h178v45q0 89-54.5 134.5t-146.5 45.5q-140 0-192-137l-195 41q32 131 137 208t252 77q412 0 412-408v-641h-180l-21 135q-109-151-319-151-141 0-229.5 82t-88.5 231zM205 1333q0 55 37 92t92 37 92-37 37-92-37-92-92-37-92 37-37 92zM315 297q0-57 33.5-91t95.5-34q109 0 189 68 82 70 82 194v23h-187q-98 0-155.5-43t-57.5-117zM586 1333q0 55 37 92t92 37 92-37 37-92-37-92-92-37-92 37-37 92z" horiz-adv-x="1052" unicode="&#xe4;"/><glyph d="M90 297q0 157 122 247.5t325 90.5h178v45q0 89-54.5 134.5t-146.5 45.5q-140 0-192-137l-195 41q32 131 137 208t252 77q412 0 412-408v-641h-180l-21 135q-109-151-319-151-141 0-229.5 82t-88.5 231zM309 1337q0 88 59.5 148.5t147.5 60.5q90 0 148.5-60t58.5-149q0-87-58.5-143.5t-148.5-56.5q-88 0-147.5 57.5t-59.5 142.5zM315 297q0-57 33.5-91t95.5-34q109 0 189 68 82 70 82 194v23h-187q-98 0-155.5-43t-57.5-117zM442 1339q0-46 37-65t74 0 37 65q4 49-35 69.5t-78 0-35-69.5z" horiz-adv-x="1052" unicode="&#xe5;"/><glyph d="M90 297q0 157 122 247.5t325 90.5h178v45q0 90-56 135t-151 45q-150 0-197-135l-180 39q30 132 129.5 208.5t247.5 76.5q240 0 346-142 133 142 342 142 96 0 176-30t134-79.5 92-115 55.5-135 17.5-140.5v-92h-731q0-125 68.5-205t187.5-80q87 0 159.5 46.5t110.5 127.5l183-72q-79-155-182-222.5t-271-67.5q-279 0-408 231-114-231-380-231-141 0-229.5 82t-88.5 231zM315 297q0-57 33.5-91t95.5-34q109 0 189 68 82 70 82 194v31h-187q-96 0-154.5-47t-58.5-121zM944 635h502q-14 101-79.5 163t-170.5 62q-100 0-166.5-61.5t-85.5-163.5z" horiz-adv-x="1759" unicode="&#xe6;"/><glyph d="M100 516q0 230 125 379 127 154 361 154 320 0 446-285l-190-82q-79 178-256 178-127 0-193.5-92t-66.5-252 66.5-252 193.5-92q177 0 256 178l190-82q-126-284-446-284-234 0-361 151-125 152-125 381zM342-399l254 276h166l-172-391z" horiz-adv-x="1110" unicode="&#xe7;"/><glyph d="M100 516q0 76 17 150t55 144 93 122.5 137 84.5 180 32q96 0 176-30t134-79.5 92-115 55.5-135 17.5-140.5v-92h-731q0-125 68.5-205t187.5-80q87 0 159.5 46.5t110.5 127.5l182-72q-79-155-182-222.5t-270-67.5q-98 0-180 32t-137 84.5-93 122-55 143.5-17 150zM287 1450h288l140-303h-164zM330 635h501q-14 101-79 163t-170 62q-100 0-166.5-61.5t-85.5-163.5z" horiz-adv-x="1144" unicode="&#xe8;"/><glyph d="M100 516q0 76 17 150t55 144 93 122.5 137 84.5 180 32q96 0 176-30t134-79.5 92-115 55.5-135 17.5-140.5v-92h-731q0-125 68.5-205t187.5-80q87 0 159.5 46.5t110.5 127.5l182-72q-79-155-182-222.5t-270-67.5q-98 0-180 32t-137 84.5-93 122-55 143.5-17 150zM330 635h501q-14 101-79 163t-170 62q-100 0-166.5-61.5t-85.5-163.5zM422 1147l139 303h289l-264-303h-164z" horiz-adv-x="1144" unicode="&#xe9;"/><glyph d="M100 516q0 76 17 150t55 144 93 122.5 137 84.5 180 32q96 0 176-30t134-79.5 92-115 55.5-135 17.5-140.5v-92h-731q0-125 68.5-205t187.5-80q87 0 159.5 46.5t110.5 127.5l182-72q-79-155-182-222.5t-270-67.5q-98 0-180 32t-137 84.5-93 122-55 143.5-17 150zM219 1159l332 361h61l332-361h-205l-157 164-158-164h-205zM330 635h501q-14 101-79 163t-170 62q-100 0-166.5-61.5t-85.5-163.5z" horiz-adv-x="1144" unicode="&#xea;"/><glyph d="M100 516q0 76 17 150t55 144 93 122.5 137 84.5 180 32q96 0 176-30t134-79.5 92-115 55.5-135 17.5-140.5v-92h-731q0-125 68.5-205t187.5-80q87 0 159.5 46.5t110.5 127.5l182-72q-79-155-182-222.5t-270-67.5q-98 0-180 32t-137 84.5-93 122-55 143.5-17 150zM262 1333q0 55 37 92t92 37 92-37 37-92-37-92-92-37-92 37-37 92zM330 635h501q-14 101-79 163t-170 62q-100 0-166.5-61.5t-85.5-163.5zM643 1333q0 55 37 92t92 37 92-37 37-92-37-92-92-37-92 37-37 92z" horiz-adv-x="1144" unicode="&#xeb;"/><glyph d="M-2 1450h289l139-303h-164zM166 0v1032h213v-1032h-213z" horiz-adv-x="544" unicode="&#xec;"/><glyph d="M121 1147l139 303h289l-264-303h-164zM166 0v1032h213v-1032h-213z" horiz-adv-x="544" unicode="&#xed;"/><glyph d="M-88 1159l332 361h61l332-361h-205l-158 164-157-164h-205zM166 0v1032h213v-1032h-213z" horiz-adv-x="544" unicode="&#xee;"/><glyph d="M-47 1333q0 55 37 92t92 37 92-37 37-92-37-92-92-37-92 37-37 92zM166 0v1032h213v-1032h-213zM334 1333q0 55 37 92t92 37 92-37 37-92-37-92-92-37-92 37-37 92z" horiz-adv-x="544" unicode="&#xef;"/><glyph d="M100 516q0 230 131 379 133 154 365 154 117 0 188-56-51 114-186 215l-72-106-139 98 68 98q-38 22-168 82l104 156q105-47 168-84l72 107 139-99-70-100q392-303 392-844 0-226-134-381-133-151-362-151-232 0-365 151-131 152-131 381zM326 516q0-144 69-244t201-100 201 100 69 244-69 244-201 100-201-100-69-244z" horiz-adv-x="1191" unicode="&#xf0;"/><glyph d="M176 0v1032h213v-176q55 92 143 142.5t191 50.5q138 0 220.5-82t82.5-228v-739h-213v672q0 188-160 188-106 0-186-121-78-122-78-321v-418h-213zM242 1278q33 71 99 118.5t136 47.5q78 0 148-43 71-41 120-41 69 0 136 82l116-96q-33-71-99-118.5t-136-47.5q-79 0-150 41-70 43-118 43-69 0-136-82z" unicode="&#xf1;"/><glyph d="M100 516q0 226 138 379 139 154 370 154 230 0 369-154t139-379-139-379q-138-153-369-153-232 0-370 153t-138 379zM326 516q0-143 73-244 75-100 209-100 135 0 207 100 76 101 76 244 0 141-76 242-73 102-207 102-132 0-209-102-73-101-73-242zM352 1450h289l139-303h-164z" horiz-adv-x="1216" unicode="&#xf2;"/><glyph d="M100 516q0 226 138 379 139 154 370 154 230 0 369-154t139-379-139-379q-138-153-369-153-232 0-370 153t-138 379zM326 516q0-143 73-244 75-100 209-100 135 0 207 100 76 101 76 244 0 141-76 242-73 102-207 102-132 0-209-102-73-101-73-242zM451 1147l139 303h289l-265-303h-163z" horiz-adv-x="1216" unicode="&#xf3;"/><glyph d="M100 516q0 226 138 379 139 154 370 154 230 0 369-154t139-379-139-379q-138-153-369-153-232 0-370 153t-138 379zM246 1159l332 361h61l332-361h-205l-158 164-157-164h-205zM326 516q0-143 73-244 75-100 209-100 135 0 207 100 76 101 76 244 0 141-76 242-73 102-207 102-132 0-209-102-73-101-73-242z" horiz-adv-x="1216" unicode="&#xf4;"/><glyph d="M100 516q0 226 138 379 139 154 370 154 230 0 369-154t139-379-139-379q-138-153-369-153-232 0-370 153t-138 379zM229 1278q33 71 99 118.5t137 47.5q77 0 147-43 71-41 121-41 68 0 135 82l117-96q-33-71-99-118.5t-136-47.5q-79 0-150 41-70 43-119 43-68 0-135-82zM326 516q0-143 73-244 75-100 209-100 135 0 207 100 76 101 76 244 0 141-76 242-73 102-207 102-132 0-209-102-73-101-73-242z" horiz-adv-x="1216" unicode="&#xf5;"/><glyph d="M100 516q0 226 138 379 139 154 370 154 230 0 369-154t139-379-139-379q-138-153-369-153-232 0-370 153t-138 379zM289 1333q0 55 37 92t92 37 92-37 37-92-37-92-92-37-92 37-37 92zM326 516q0-143 73-244 75-100 209-100 135 0 207 100 76 101 76 244 0 141-76 242-73 102-207 102-132 0-209-102-73-101-73-242zM670 1333q0 55 37 92t92 37 92-37 37-92-37-92-92-37-92 37-37 92z" horiz-adv-x="1216" unicode="&#xf6;"/><glyph d="M92 555v188h912v-188h-912zM395 262q0 64 43 107 44 44 108 44t107-44q44-43 44-107t-44-108q-43-43-107-43t-108 43q-43 44-43 108zM395 1023q0 64 43 107 44 44 108 44t107-44q44-43 44-107t-44-108q-43-43-107-43t-108 43q-43 44-43 108z" horiz-adv-x="1095" unicode="&#xf7;"/><glyph d="M92 8l123 158q-115 148-115 350 0 226 138 379 139 154 370 154 137 0 252-62l115 148 149-111-123-158q115-148 115-350 0-225-139-379-138-153-369-153-139 0-252 61l-114-147zM326 516q0-91 32-168l377 479q-56 33-127 33-132 0-209-102-73-101-73-242zM481 205q56-33 127-33 135 0 207 100 76 101 76 244 0 89-33 168z" horiz-adv-x="1216" unicode="&#xf8;"/><glyph d="M162 293v739h213v-672q0-188 160-188 108 0 184 119 80 121 80 323v418h213v-1032h-213v176q-55-92-143-142t-191-50q-139 0-221 81.5t-82 227.5zM330 1450h288l140-303h-164z" unicode="&#xf9;"/><glyph d="M162 293v739h213v-672q0-188 160-188 108 0 184 119 80 121 80 323v418h213v-1032h-213v176q-55-92-143-142t-191-50q-139 0-221 81.5t-82 227.5zM414 1147l139 303h289l-264-303h-164z" unicode="&#xfa;"/><glyph d="M162 293v739h213v-672q0-188 160-188 108 0 184 119 80 121 80 323v418h213v-1032h-213v176q-55-92-143-142t-191-50q-139 0-221 81.5t-82 227.5zM199 1159l331 361h62l332-361h-205l-158 164-158-164h-204z" unicode="&#xfb;"/><glyph d="M162 293v739h213v-672q0-188 160-188 108 0 184 119 80 121 80 323v418h213v-1032h-213v176q-55-92-143-142t-191-50q-139 0-221 81.5t-82 227.5zM274 1333q0 55 37 92t92.5 37 92.5-37 37-92-37-92-92.5-37-92.5 37-37 92zM655 1333q0 55 37 92t92.5 37 92.5-37 37-92-37-92-92.5-37-92.5 37-37 92z" unicode="&#xfc;"/><glyph d="M16 1032h226l243-694 236 694h225l-522-1450h-213l168 469zM328 1147l139 303h289l-264-303h-164z" horiz-adv-x="960" unicode="&#xfd;"/><glyph d="M176-418v1868h213v-532q35 49 119 90t158 41q224 0 344-141.5t120-391.5q0-254-118-393t-342-139q-90 0-170 40.5t-111 94.5v-537h-213zM377 516q0-157 74-252 74-92 190-92t190 92q74 95 74 252 0 158-74 250-73 94-190 94t-190-94q-74-92-74-250z" horiz-adv-x="1230" unicode="&#xfe;"/><glyph d="M16 1032h226l243-694 236 694h225l-522-1450h-213l168 469zM168 1333q0 55 37 92t92 37 92-37 37-92-37-92-92-37-92 37-37 92zM549 1333q0 55 37 92t92 37 92-37 37-92-37-92-92-37-92 37-37 92z" horiz-adv-x="960" unicode="&#xff;"/><glyph d="M104 717q0 348 189 540 190 193 469 193 248 0 432-158v142h850v-213h-625v-353h504v-213h-504v-442h645v-213h-870v141q-183-157-432-157-279 0-469 190-189 195-189 543zM334 717q0-254 121-387 124-133 307-133 184 0 305 133 123 132 123 387t-123 387q-121 133-305 133-183 0-307-133-121-133-121-387z" horiz-adv-x="2164" unicode="&#x152;"/><glyph d="M100 516q0 226 138 379 139 154 370 154 253 0 391-181 132 181 373 181 96 0 176-30t134-79.5 92-115 55.5-135 17.5-140.5v-92h-731q0-125 68.5-205t187.5-80q87 0 159.5 46.5t110.5 127.5l183-72q-79-155-182-222.5t-271-67.5q-242 0-373 180-137-180-391-180-232 0-370 153t-138 379zM326 516q0-143 73-244 75-100 209-100 135 0 207 100 76 101 76 244 0 141-76 242-73 102-207 102-132 0-209-102-73-101-73-242zM1120 635h502q-14 101-79.5 163t-170.5 62q-100 0-166.5-61.5t-85.5-163.5z" horiz-adv-x="1935" unicode="&#x153;"/><glyph d="M4 1434h240l282-596 283 596h240l-410-820v-614h-225v614zM209 1734.5q0 55.5 37 92.5t92 37 92-37 37-92.5-37-92.5-92-37-92 37-37 92.5zM590 1734.5q0 55.5 37 92.5t92 37 92-37 37-92.5-37-92.5-92-37-92 37-37 92.5z" horiz-adv-x="1052" unicode="&#x178;"/><glyph d="M59 1159l332 361h62l331-361h-204l-158 164-158-164h-205z" horiz-adv-x="843" unicode="&#x2c6;"/><glyph d="M35 1278q33 71 99 118.5t136 47.5q78 0 148-43 71-41 121-41 68 0 135 82l117-96q-33-71-99-118.5t-137-47.5q-78 0-149 41-70 43-119 43-68 0-135-82z" horiz-adv-x="825" unicode="&#x2dc;"/><glyph horiz-adv-x="974" unicode="&#x2000;"/><glyph horiz-adv-x="1948" unicode="&#x2001;"/><glyph horiz-adv-x="974" unicode="&#x2002;"/><glyph horiz-adv-x="1948" unicode="&#x2003;"/><glyph horiz-adv-x="649" unicode="&#x2004;"/><glyph horiz-adv-x="487" unicode="&#x2005;"/><glyph horiz-adv-x="324" unicode="&#x2006;"/><glyph horiz-adv-x="324" unicode="&#x2007;"/><glyph horiz-adv-x="243" unicode="&#x2008;"/><glyph horiz-adv-x="389" unicode="&#x2009;"/><glyph horiz-adv-x="108" unicode="&#x200a;"/><glyph d="M139 555v188h723v-188h-723z" horiz-adv-x="1001" unicode="&#x2010;"/><glyph d="M139 555v188h723v-188h-723z" horiz-adv-x="1001" unicode="&#x2011;"/><glyph d="M139 555v188h723v-188h-723z" horiz-adv-x="1001" unicode="&#x2012;"/><glyph d="M139 555v188h912v-188h-912z" horiz-adv-x="1189" unicode="&#x2013;"/><glyph d="M139 555v188h1317v-188h-1317z" horiz-adv-x="1595" unicode="&#x2014;"/><glyph d="M111 1450h292l152-455h-160z" horiz-adv-x="651" unicode="&#x2018;"/><glyph d="M96 995l152 455h293l-285-455h-160z" horiz-adv-x="651" unicode="&#x2019;"/><glyph d="M96-29l152 455h293l-285-455h-160z" horiz-adv-x="651" unicode="&#x201a;"/><glyph d="M111 1450h292l152-455h-160zM516 1450h293l152-455h-160z" horiz-adv-x="1056" unicode="&#x201c;"/><glyph d="M96 995l152 455h293l-285-455h-160zM502 995l151 455h293l-284-455h-160z" horiz-adv-x="1056" unicode="&#x201d;"/><glyph d="M96-29l152 455h293l-285-455h-160zM502-29l151 455h293l-284-455h-160z" horiz-adv-x="1056" unicode="&#x201e;"/><glyph d="M166 676q0 90 61 151 64 64 154 64t151-64q64-61 64-151t-64-154q-61-61-151-61t-154 61q-61 64-61 154z" horiz-adv-x="761" unicode="&#x2022;"/><glyph d="M174 141q0 64 43 107 44 44 108 44t107-44q44-43 44-107t-44-108q-43-43-107-43t-108 43q-43 44-43 108zM723 141q0 64 43 107 44 44 108 44t107-44q44-43 44-107t-44-108q-43-43-107-43t-108 43q-43 44-43 108zM1272 141q0 64 43 107 44 44 108 44t107-44q44-43 44-107t-44-108q-43-43-107-43t-108 43q-43 44-43 108z" horiz-adv-x="1748" unicode="&#x2026;"/><glyph horiz-adv-x="389" unicode="&#x202f;"/><glyph d="M94 561v148l600 421v-219l-387-276 387-277v-219z" horiz-adv-x="802" unicode="&#x2039;"/><glyph d="M109 139v219l387 277-387 276v219l600-421v-148z" horiz-adv-x="802" unicode="&#x203a;"/><glyph horiz-adv-x="487" unicode="&#x205f;"/><glyph d="M59 467l95 188h90v123h-185l95 189h106q42 234 184 358.5t355 124.5q293 0 418-233l-181-103q-88 143-237 143-262 0-320-290h436l-94-189h-360v-123h454l-94-188h-342q58-291 320-291 149 0 237 143l181-102q-125-233-418-233-213 0-355 124.5t-184 358.5h-201z" horiz-adv-x="1296" unicode="&#x20ac;"/><glyph d="M51 1278v156h602v-156h-215v-664h-172v664h-215zM780 614v820h174l207-500 207 500h174v-820h-172v463l-153-387h-111l-154 387v-463h-172z" horiz-adv-x="1703" unicode="&#x2122;"/><glyph d="M0 0v1034h1034v-1034h-1034z" horiz-adv-x="1034" unicode="&#x25fc;"/></font>
</defs>
</svg>
