<svg width="550" height="550" fill="none" xmlns="http://www.w3.org/2000/svg"><path d="M395.591 124.343c37.581 39.802 62.292 75.477 71.869 114.141 9.573 38.647 4.043 80.357-19.02 132.264-20.392 45.892-62.02 67.733-106.955 91.308a4075.063 4075.063 0 0 0-6.623 3.479c-28.72 15.121-54.049 21.527-78.671 18.868-24.624-2.658-48.61-14.39-74.628-35.674-47.983-39.254-62.743-69.561-78.094-101.082-1.297-2.662-2.598-5.334-3.923-8.02-15.504-31.417-22.178-60.613-20.074-90.08 2.105-29.47 12.992-59.254 32.679-91.839 27.216-45.045 69.809-76.072 123.071-89.739 59.195-15.188 116.433 9.841 160.369 56.374z" stroke="url(#a)"/><defs><linearGradient id="a" x1="103.426" y1="171.182" x2="445.789" y2="378.034" gradientUnits="userSpaceOnUse"><stop stop-color="#FF3E7C"/><stop offset="1" stop-color="#FF00CF"/></linearGradient></defs></svg>