<svg width="560" height="560" fill="none" xmlns="http://www.w3.org/2000/svg"><path d="M398.631 440.018c-88.495 65.638-213.445 47.109-279.083-41.387-30.82-41.553-28.201-90.058-23.301-137.973 5.515-53.928 17.876-106.39 64.688-141.11 15.603-11.573 37.003-17.736 59.088-21.347 17.637-2.883 35.66-4.133 51.46-5.228 3.981-.276 7.821-.543 11.479-.823 33.08-2.534 61.741.382 87.423 11.059 25.678 10.675 48.42 29.125 69.633 57.726 14.635 19.731 21.267 44.813 23.853 70.708 2.586 25.893 1.121 52.548-.4 75.397-1.88 28.231-5.872 52.404-15.495 74.051-9.62 21.637-24.88 40.781-49.345 58.927z" stroke="url(#a)"/><defs><linearGradient id="a" x1="440.42" y1="160.637" x2="119.146" y2="398.929" gradientUnits="userSpaceOnUse"><stop stop-color="#FF3E7C"/><stop offset="1" stop-color="#FF00CF"/></linearGradient></defs></svg>