<?xml version="1.0" encoding="UTF-8"?>
<svg width="79px" height="20px" viewBox="0 0 79 20" version="1.1" xmlns="http://www.w3.org/2000/svg" xmlns:xlink="http://www.w3.org/1999/xlink">
    <title>labs</title>
    <g id="Page-1" stroke="none" stroke-width="1" fill="none" fill-rule="evenodd">
        <g id="labs" fill="#FFFFFF">
            <path d="M9.17712692,19.3223388 C12.1059972,19.3223388 14.0864714,17.6221889 14.5606695,14.3838081 L12.4407252,13.9790105 C12.0781032,16.1649175 10.9902371,17.2713643 9.17712692,17.2713643 C7.19665272,17.2713643 6.22036262,16.1649175 6.22036262,13.9790105 L6.22036262,0.215892054 L0,0.215892054 L0,2.26686657 L3.87726639,2.26686657 L3.87726639,13.9790105 C3.87726639,17.3523238 5.91352859,19.3223388 9.17712692,19.3223388 Z" id="Path"></path>
            <path d="M29.2794049,5.28935532 C32.7382613,5.28935532 34.8582055,6.93553223 34.8582055,10.5247376 L34.8582055,19.1064468 L32.9614133,19.1064468 L32.6266853,17.1904048 C31.7340772,18.4587706 29.753603,19.3223388 27.6615528,19.3223388 C25.1789865,19.3223388 23.3100883,17.8650675 23.3100883,15.1934033 C23.3100883,12.2518741 25.6810786,10.7406297 29.669921,10.7406297 L32.5151093,10.7406297 L32.5151093,10.1469265 C32.5151093,8.17691154 31.1761971,7.34032984 29.2794049,7.34032984 C27.6894468,7.34032984 26.4063226,8.28485757 25.9600186,9.66116942 L23.8958624,9.12143928 C24.5374245,6.77361319 26.6852627,5.28935532 29.2794049,5.28935532 Z M32.5151093,12.6836582 L29.4467689,12.6836582 C27.0757787,12.6836582 25.7089726,13.6551724 25.7089726,15.1934033 C25.7089726,16.4887556 26.6015807,17.2713643 28.0241748,17.2713643 C29.1399349,17.2713643 30.172013,16.9205397 31.0925151,16.2458771 C32.0409112,15.5442279 32.5151093,14.4917541 32.5151093,13.1154423 L32.5151093,13.1154423 L32.5151093,12.6836582 Z" id="Combined-Shape"></path>
            <path d="M47.2896327,0 L47.2896327,7.23238381 C48.1543468,6.12593703 49.716411,5.28935532 51.5853092,5.28935532 C55.6299396,5.28935532 58.0288238,8.06896552 58.0288238,12.3058471 C58.0288238,16.5427286 55.6299396,19.3223388 51.5853092,19.3223388 C49.772199,19.3223388 48.1543468,18.4587706 47.2896327,17.2983508 L47.2896327,19.1064468 L44.9465365,19.1064468 L44.9465365,0 L47.2896327,0 Z M51.3621571,7.34032984 C50.051139,7.34032984 48.9911669,7.79910045 48.2380288,8.71664168 C47.4848907,9.63418291 47.0943747,10.8215892 47.0943747,12.3058471 C47.0943747,13.7901049 47.4848907,14.9775112 48.2380288,15.8950525 C48.9911669,16.8125937 50.051139,17.2713643 51.3621571,17.2713643 C52.6731753,17.2713643 53.7331474,16.8125937 54.4862854,15.8950525 C55.2394235,14.9775112 55.6299396,13.7901049 55.6299396,12.3058471 C55.6299396,10.8215892 55.2394235,9.63418291 54.4862854,8.71664168 C53.7331474,7.79910045 52.6731753,7.34032984 51.3621571,7.34032984 Z" id="Combined-Shape"></path>
            <path d="M76.9316597,18.161919 C75.8995816,18.9445277 74.6164575,19.3223388 73.0822873,19.3223388 C70.181311,19.3223388 67.8382148,17.892054 66.9735007,15.3823088 L69.2050209,14.5727136 C69.846583,16.2728636 71.1854951,17.2713643 73.0822873,17.2713643 C74.7838215,17.2713643 76.0669456,16.5427286 76.0669456,15.1664168 C76.0669456,14.0869565 75.0069735,13.7091454 72.4407252,13.1694153 C69.567643,12.6026987 67.8940028,11.6311844 67.8940028,9.22938531 C67.8940028,8.04197901 68.3682008,7.09745127 69.2887029,6.36881559 C70.209205,5.64017991 71.3528591,5.28935532 72.6917713,5.28935532 C75.0069735,5.28935532 76.7085077,6.26086957 77.8242678,8.23088456 L75.9832636,9.49925037 C75.1743375,8.06896552 74.0306834,7.34032984 72.6080893,7.34032984 C71.2691771,7.34032984 70.181311,7.93403298 70.181311,9.14842579 C70.181311,10.2548726 71.2133891,10.8215892 73.4449093,11.2533733 C74.6443515,11.4962519 75.3974895,11.6581709 76.3179916,12.0629685 C77.6290098,12.6026987 78.4937238,13.5202399 78.4937238,14.9505247 C78.4937238,16.2998501 77.9637378,17.3793103 76.9316597,18.161919 L76.9316597,18.161919 Z" id="Path"></path>
        </g>
    </g>
</svg>