<?xml version="1.0" encoding="UTF-8"?>
<svg width="79px" height="16px" viewBox="0 0 79 16" version="1.1" xmlns="http://www.w3.org/2000/svg" xmlns:xlink="http://www.w3.org/1999/xlink">
    <title>case</title>
    <g id="Page-1" stroke="none" stroke-width="1" fill="none" fill-rule="evenodd">
        <g id="case" transform="translate(0.143654, 0.983508)" fill="#FFFFFF">
            <path d="M6.72245467,14.0329835 C9.53974895,14.0329835 11.5202232,12.7916042 12.6638773,10.2818591 L10.6276151,9.47226387 C9.87447699,11.1454273 8.59135286,11.982009 6.72245467,11.982009 C4.0167364,11.982009 2.39888424,9.93103448 2.39888424,7.01649175 C2.39888424,4.10194903 4.0167364,2.05097451 6.72245467,2.05097451 C8.59135286,2.05097451 9.87447699,2.88755622 10.6276151,4.56071964 L12.6638773,3.75112444 C11.5202232,1.24137931 9.53974895,0 6.72245467,0 C4.65829847,0 3.0125523,0.674662669 1.81311018,2.05097451 C0.613668061,3.42728636 0,5.07346327 0,7.01649175 C0,8.95952024 0.613668061,10.6056972 1.81311018,11.982009 C3.0125523,13.3583208 4.65829847,14.0329835 6.72245467,14.0329835 Z" id="Path"></path>
            <path d="M28.5262669,0 C31.9851232,0 34.1050674,1.64617691 34.1050674,5.23538231 L34.1050674,13.8170915 L32.2082752,13.8170915 L31.8735472,11.9010495 C30.9809391,13.1694153 29.0004649,14.0329835 26.9084147,14.0329835 C24.4258484,14.0329835 22.5569503,12.5757121 22.5569503,9.90404798 C22.5569503,6.96251874 24.9279405,5.45127436 28.9167829,5.45127436 L31.7619712,5.45127436 L31.7619712,4.85757121 C31.7619712,2.88755622 30.423059,2.05097451 28.5262669,2.05097451 C26.9363087,2.05097451 25.6531846,2.99550225 25.2068805,4.37181409 L23.1427243,3.83208396 C23.7842864,1.48425787 25.9321246,0 28.5262669,0 Z M31.7619712,7.39430285 L28.6936309,7.39430285 C26.3226406,7.39430285 24.9558345,8.36581709 24.9558345,9.90404798 C24.9558345,11.1994003 25.8484426,11.982009 27.2710367,11.982009 C28.3867968,11.982009 29.4188749,11.6311844 30.339377,10.9565217 C31.2877731,10.2548726 31.7619712,9.2023988 31.7619712,7.82608696 L31.7619712,7.82608696 L31.7619712,7.39430285 Z" id="Combined-Shape"></path>
            <path d="M54.2352394,12.8725637 C53.2031613,13.6551724 51.9200372,14.0329835 50.385867,14.0329835 C47.4848907,14.0329835 45.1417945,12.6026987 44.2770804,10.0929535 L46.5086007,9.28335832 C47.1501627,10.9835082 48.4890748,11.982009 50.385867,11.982009 C52.0874012,11.982009 53.3705253,11.2533733 53.3705253,9.87706147 C53.3705253,8.7976012 52.3105532,8.4197901 49.744305,7.88005997 C46.8712227,7.31334333 45.1975825,6.34182909 45.1975825,3.94002999 C45.1975825,2.75262369 45.6717806,1.80809595 46.5922827,1.07946027 C47.5127848,0.350824588 48.6564389,0 49.995351,0 C52.3105532,0 54.0120874,0.971514243 55.1278475,2.94152924 L53.2868433,4.20989505 C52.4779172,2.77961019 51.3342631,2.05097451 49.911669,2.05097451 C48.5727569,2.05097451 47.4848907,2.64467766 47.4848907,3.85907046 C47.4848907,4.96551724 48.5169689,5.53223388 50.7484891,5.96401799 C51.9479312,6.20689655 52.7010693,6.36881559 53.6215714,6.77361319 C54.9325895,7.31334333 55.7973036,8.23088456 55.7973036,9.66116942 C55.7973036,11.0104948 55.2673175,12.089955 54.2352394,12.8725637 L54.2352394,12.8725637 Z" id="Path"></path>
            <path d="M72.1896792,0 C74.2817294,0 75.9274756,0.620689655 77.0990237,1.88905547 C78.2705718,3.13043478 78.8563459,4.69565217 78.8563459,6.55772114 L78.8563459,6.55772114 L78.8563459,7.50224888 L67.8661088,7.50224888 C68.0055788,10.2008996 69.707113,11.982009 72.1896792,11.982009 C74.1980474,11.982009 75.7043236,11.0914543 76.7085077,9.28335832 L76.7085077,9.28335832 L78.5774059,10.2278861 C77.2105997,12.7646177 75.0906555,14.0329835 72.1896792,14.0329835 C70.181311,14.0329835 68.5634589,13.3583208 67.3082287,12.035982 C66.0808926,10.7136432 65.4672245,9.04047976 65.4672245,7.01649175 C65.4672245,5.04647676 66.0808926,3.37331334 67.2803347,2.02398801 C68.5076709,0.674662669 70.153417,0 72.1896792,0 Z M72.1896792,2.05097451 C69.986053,2.05097451 68.5076709,3.31934033 68.0334728,5.45127436 L76.3737796,5.45127436 C75.9553696,3.29235382 74.4490934,2.05097451 72.1896792,2.05097451 Z" id="Combined-Shape"></path>
        </g>
    </g>
</svg>