<?xml version="1.0" encoding="UTF-8"?>
<svg width="80px" height="15px" viewBox="0 0 80 15" version="1.1" xmlns="http://www.w3.org/2000/svg" xmlns:xlink="http://www.w3.org/1999/xlink">
    <title>muse</title>
    <g id="Page-1" stroke="none" stroke-width="1" fill="none" fill-rule="evenodd">
        <g id="muse" fill="#FFFFFF">
            <path d="M2.34309623,13.8170915 L2.34309623,7.42128936 C2.34309623,3.83208396 3.37517434,2.07796102 4.82566248,2.07796102 C5.91352859,2.07796102 6.35983264,2.67166417 6.35983264,4.15592204 L6.35983264,13.8170915 L8.70292887,13.8170915 L8.70292887,7.42128936 C8.70292887,3.83208396 9.73500697,2.07796102 11.1854951,2.07796102 C12.2733612,2.07796102 12.7196653,2.67166417 12.7196653,4.15592204 L12.7196653,13.8170915 L15.0627615,13.8170915 L15.0627615,3.67016492 C15.0627615,1.1874063 13.8633194,0 11.9944212,0 C10.5439331,0 9.28870293,0.890554723 8.53556485,2.21289355 C8.11715481,0.728635682 7.14086471,0 5.63458856,0 C4.26778243,0 3.17991632,0.647676162 2.34309623,1.94302849 L2.34309623,0.215892054 L0,0.215892054 L0,13.8170915 L2.34309623,13.8170915 Z" id="Path"></path>
            <path d="M27.7731288,14.0329835 C29.697815,14.0329835 31.5109252,12.9265367 32.5430033,11.3073463 L32.5430033,13.8170915 L34.8860995,13.8170915 L34.8860995,0.215892054 L32.5430033,0.215892054 L32.5430033,5.69415292 C32.5430033,7.6101949 32.1524872,9.12143928 31.3435611,10.2818591 C30.5346351,11.4152924 29.558345,11.982009 28.4146908,11.982009 C26.6852627,11.982009 25.8205486,11.0644678 25.8205486,9.2023988 L25.8205486,0.215892054 L23.4774523,0.215892054 L23.4774523,9.68815592 C23.4774523,12.3868066 24.9000465,14.0329835 27.7731288,14.0329835 Z" id="Path"></path>
            <path d="M55.3788935,12.8725637 C54.3468154,13.6551724 53.0636913,14.0329835 51.5295212,14.0329835 C48.6285449,14.0329835 46.2854486,12.6026987 45.4207345,10.0929535 L47.6522548,9.28335832 C48.2938168,10.9835082 49.632729,11.982009 51.5295212,11.982009 C53.2310553,11.982009 54.5141795,11.2533733 54.5141795,9.87706147 C54.5141795,8.7976012 53.4542073,8.4197901 50.8879591,7.88005997 C48.0148768,7.31334333 46.3412366,6.34182909 46.3412366,3.94002999 C46.3412366,2.75262369 46.8154347,1.80809595 47.7359368,1.07946027 C48.6564389,0.350824588 49.800093,0 51.1390051,0 C53.4542073,0 55.1557415,0.971514243 56.2715016,2.94152924 L54.4304974,4.20989505 C53.6215714,2.77961019 52.4779172,2.05097451 51.0553231,2.05097451 C49.716411,2.05097451 48.6285449,2.64467766 48.6285449,3.85907046 C48.6285449,4.96551724 49.660623,5.53223388 51.8921432,5.96401799 C53.0915853,6.20689655 53.8447234,6.36881559 54.7652255,6.77361319 C56.0762436,7.31334333 56.9409577,8.23088456 56.9409577,9.66116942 C56.9409577,11.0104948 56.4109716,12.089955 55.3788935,12.8725637 L55.3788935,12.8725637 Z" id="Path"></path>
            <path d="M73.3333333,0 C75.4253835,0 77.0711297,0.620689655 78.2426778,1.88905547 C79.4142259,3.13043478 80,4.69565217 80,6.55772114 L80,6.55772114 L80,7.50224888 L69.0097629,7.50224888 C69.1492329,10.2008996 70.8507671,11.982009 73.3333333,11.982009 C75.3417015,11.982009 76.8479777,11.0914543 77.8521618,9.28335832 L77.8521618,9.28335832 L79.72106,10.2278861 C78.3542538,12.7646177 76.2343096,14.0329835 73.3333333,14.0329835 C71.3249651,14.0329835 69.707113,13.3583208 68.4518828,12.035982 C67.2245467,10.7136432 66.6108787,9.04047976 66.6108787,7.01649175 C66.6108787,5.04647676 67.2245467,3.37331334 68.4239888,2.02398801 C69.651325,0.674662669 71.2970711,0 73.3333333,0 Z M73.3333333,2.05097451 C71.1297071,2.05097451 69.651325,3.31934033 69.1771269,5.45127436 L77.5174338,5.45127436 C77.0990237,3.29235382 75.5927476,2.05097451 73.3333333,2.05097451 Z" id="Combined-Shape"></path>
        </g>
    </g>
</svg>