<svg width="52" height="54" fill="none" xmlns="http://www.w3.org/2000/svg"><path fill-rule="evenodd" clip-rule="evenodd" d="M1.512 9.216V4.95c0-2.394.666-3.564 1.602-3.564.702 0 .99.396.99 1.386v6.444h1.512V4.95c0-2.394.666-3.564 1.602-3.564.702 0 .99.396.99 1.386v6.444H9.72V2.448C9.72.792 8.946 0 7.74 0c-.936 0-1.746.594-2.232 1.476C5.238.486 4.608 0 3.636 0c-.882 0-1.584.432-2.124 1.296V.144H0v9.072h1.512zm16.41.144c1.242 0 2.412-.738 3.078-1.818v1.674h1.512V.144H21v3.654c0 1.278-.252 2.286-.774 3.06-.522.756-1.152 1.134-1.89 1.134-1.116 0-1.674-.612-1.674-1.854V.144H15.15v6.318c0 1.8.918 2.898 2.772 2.898zm17.814-.774c-.666.522-1.494.774-2.484.774-1.872 0-3.384-.954-3.942-2.628l1.44-.54c.414 1.134 1.278 1.8 2.502 1.8 1.098 0 1.926-.486 1.926-1.404 0-.72-.684-.972-2.34-1.332-1.854-.378-2.934-1.026-2.934-2.628 0-.792.306-1.422.9-1.908C31.398.234 32.136 0 33 0c1.494 0 2.592.648 3.312 1.962l-1.188.846c-.522-.954-1.26-1.44-2.178-1.44-.864 0-1.566.396-1.566 1.206 0 .738.666 1.116 2.106 1.404.774.162 1.26.27 1.854.54.846.36 1.404.972 1.404 1.926 0 .9-.342 1.62-1.008 2.142zm11.586.774c1.872 0 3.24-.846 4.122-2.538l-1.206-.63c-.648 1.206-1.62 1.8-2.916 1.8-1.602 0-2.7-1.188-2.79-2.988h7.092v-.63c0-1.242-.378-2.286-1.134-3.114C49.734.414 48.672 0 47.322 0c-1.314 0-2.376.45-3.168 1.35-.774.9-1.17 2.016-1.17 3.33 0 1.35.396 2.466 1.188 3.348.81.882 1.854 1.332 3.15 1.332zM44.64 3.636h5.382c-.27-1.44-1.242-2.268-2.7-2.268-1.422 0-2.376.846-2.682 2.268zM5.076 31.36c1.818 0 3.096-.828 3.834-2.502l-1.314-.54c-.486 1.116-1.314 1.674-2.52 1.674-1.746 0-2.79-1.368-2.79-3.312 0-1.944 1.044-3.312 2.79-3.312 1.206 0 2.034.558 2.52 1.674l1.314-.54C8.172 22.828 6.894 22 5.076 22c-1.332 0-2.394.45-3.168 1.368-.774.918-1.17 2.016-1.17 3.312 0 1.296.396 2.394 1.17 3.312.774.918 1.836 1.368 3.168 1.368zm16.23-1.422c-.576.846-1.854 1.422-3.204 1.422-1.602 0-2.808-.972-2.808-2.754 0-1.962 1.53-2.97 4.104-2.97h1.836v-.396c0-1.314-.864-1.872-2.088-1.872-1.026 0-1.854.63-2.142 1.548l-1.332-.36c.414-1.566 1.8-2.556 3.474-2.556 2.232 0 3.6 1.098 3.6 3.492v5.724h-1.224l-.216-1.278zm-2.97.054c-.918 0-1.494-.522-1.494-1.386 0-1.026.882-1.674 2.412-1.674h1.98v.288c0 .918-.306 1.62-.918 2.088-.594.45-1.26.684-1.98.684zm17.4.594c-.666.522-1.494.774-2.484.774-1.872 0-3.384-.954-3.942-2.628l1.44-.54c.414 1.134 1.278 1.8 2.502 1.8 1.098 0 1.926-.486 1.926-1.404 0-.72-.684-.972-2.34-1.332-1.854-.378-2.934-1.026-2.934-2.628 0-.792.306-1.422.9-1.908.594-.486 1.332-.72 2.196-.72 1.494 0 2.592.648 3.312 1.962l-1.188.846c-.522-.954-1.26-1.44-2.178-1.44-.864 0-1.566.396-1.566 1.206 0 .738.666 1.116 2.106 1.404.774.162 1.26.27 1.854.54.846.36 1.404.972 1.404 1.926 0 .9-.342 1.62-1.008 2.142zm11.586.774c1.872 0 3.24-.846 4.122-2.538l-1.206-.63c-.648 1.206-1.62 1.8-2.916 1.8-1.602 0-2.7-1.188-2.79-2.988h7.092v-.63c0-1.242-.378-2.286-1.134-3.114-.756-.846-1.818-1.26-3.168-1.26-1.314 0-2.376.45-3.168 1.35-.774.9-1.17 2.016-1.17 3.33 0 1.35.396 2.466 1.188 3.348.81.882 1.854 1.332 3.15 1.332zm-2.682-5.724h5.382c-.27-1.44-1.242-2.268-2.7-2.268-1.422 0-2.376.846-2.682 2.268zM6.174 53.36c1.89 0 3.168-1.134 3.474-3.294l-1.368-.27c-.234 1.458-.936 2.196-2.106 2.196-1.278 0-1.908-.738-1.908-2.196v-9.18H.252v1.368h2.502v7.812c0 2.25 1.314 3.564 3.42 3.564zm15.132-1.422c-.576.846-1.854 1.422-3.204 1.422-1.602 0-2.808-.972-2.808-2.754 0-1.962 1.53-2.97 4.104-2.97h1.836v-.396c0-1.314-.864-1.872-2.088-1.872-1.026 0-1.854.63-2.142 1.548l-1.332-.36c.414-1.566 1.8-2.556 3.474-2.556 2.232 0 3.6 1.098 3.6 3.492v5.724h-1.224l-.216-1.278zm-2.97.054c-.918 0-1.494-.522-1.494-1.386 0-1.026.882-1.674 2.412-1.674h1.98v.288c0 .918-.306 1.62-.918 2.088-.594.45-1.26.684-1.98.684zm19.362-3.312c0 2.826-1.548 4.68-4.158 4.68-1.17 0-2.214-.576-2.772-1.35v1.206h-1.512V40.472h1.512v4.824C31.326 44.558 32.334 44 33.54 44c2.61 0 4.158 1.854 4.158 4.68zm-4.302 3.312c-.846 0-1.53-.306-2.016-.918-.486-.612-.738-1.404-.738-2.394 0-.99.252-1.782.738-2.394.486-.612 1.17-.918 2.016-.918.846 0 1.53.306 2.016.918.486.612.738 1.404.738 2.394 0 .99-.252 1.782-.738 2.394-.486.612-1.17.918-2.016.918zm16.5.594c-.666.522-1.494.774-2.484.774-1.872 0-3.384-.954-3.942-2.628l1.44-.54c.414 1.134 1.278 1.8 2.502 1.8 1.098 0 1.926-.486 1.926-1.404 0-.72-.684-.972-2.34-1.332-1.854-.378-2.934-1.026-2.934-2.628 0-.792.306-1.422.9-1.908.594-.486 1.332-.72 2.196-.72 1.494 0 2.592.648 3.312 1.962l-1.188.846c-.522-.954-1.26-1.44-2.178-1.44-.864 0-1.566.396-1.566 1.206 0 .738.666 1.116 2.106 1.404.774.162 1.26.27 1.854.54.846.36 1.404.972 1.404 1.926 0 .9-.342 1.62-1.008 2.142z" fill="#fff"/></svg>