<svg width="350" height="350" viewBox="0 0 350 350" fill="none" xmlns="http://www.w3.org/2000/svg">
<path d="M197.597 6.84329C243.748 19.6806 278.384 35.2559 303.04 59.934C327.685 84.6009 342.413 118.418 348.626 167.854C354.118 211.549 332.835 246.821 309.847 284.919C308.722 286.782 307.594 288.652 306.464 290.53C291.801 314.911 275.738 331.203 256.11 340.371C236.481 349.54 213.223 351.614 184.114 347.437C130.431 339.731 105.672 323.675 79.9154 306.97C77.7392 305.559 75.5558 304.143 73.3473 302.727C47.5281 286.174 29.3277 267.284 17.5761 244.212C5.82241 221.137 0.499999 193.841 0.499999 160.445C0.499999 114.351 27.1395 76.1767 60.8975 41.6933C79.6453 22.5426 100.35 10.0908 123.088 4.293C145.828 -1.50514 170.634 -0.656576 197.597 6.84329Z" stroke="url(#paint0_linear)"/>
<path d="M180.469 338.563C93.1719 338.563 22.375 265.349 22.375 175C22.375 132.501 33.9921 101.835 59.6575 72.7623C88.6009 39.9769 134.265 11.4375 180.469 11.4375C195.844 11.4375 212.365 17.8242 228.133 26.2357C240.723 32.952 252.787 40.9327 263.367 47.9318C266.033 49.6959 268.606 51.3977 271.069 53.0011C293.325 67.4913 310.189 83.4086 321.493 102.978C332.796 122.544 338.562 145.799 338.562 175C338.562 195.133 330.945 214.886 320.363 233.204C309.782 251.52 296.262 268.361 284.499 282.672C269.968 300.351 256.015 314.316 239.676 323.867C223.347 333.411 204.604 338.563 180.469 338.563Z" stroke="url(#paint1_linear)"/>
<defs>
<linearGradient id="paint0_linear" x1="-6.99382e-07" y1="175" x2="350" y2="175" gradientUnits="userSpaceOnUse">
<stop stop-color="#FF3E7C"/>
<stop offset="1" stop-color="#FF00CF"/>
</linearGradient>
<linearGradient id="paint1_linear" x1="339.062" y1="175" x2="21.875" y2="175" gradientUnits="userSpaceOnUse">
<stop stop-color="#FF3E7C"/>
<stop offset="1" stop-color="#FF00CF"/>
</linearGradient>
</defs>
</svg>
