<?xml version="1.0" standalone="no"?>
<!DOCTYPE svg PUBLIC "-//W3C//DTD SVG 20010904//EN"
 "http://www.w3.org/TR/2001/REC-SVG-20010904/DTD/svg10.dtd">
<svg version="1.0" xmlns="http://www.w3.org/2000/svg"
 width="784.000000pt" height="784.000000pt" viewBox="0 0 784.000000 784.000000"
 preserveAspectRatio="xMidYMid meet">
<metadata>
Created by potrace 1.14, written by Peter Selinger 2001-2017
</metadata>
<g transform="translate(0.000000,784.000000) scale(0.100000,-0.100000)"
fill="#000000" stroke="none">
<path d="M3908 7823 c-1 -5 -61 -55 -133 -112 -71 -57 -137 -111 -145 -120 -8
-9 -35 -32 -60 -52 -25 -20 -61 -52 -81 -70 -20 -19 -85 -79 -144 -134 -178
-165 -465 -457 -575 -585 -12 -14 -45 -52 -75 -85 -29 -33 -65 -76 -81 -95
-16 -19 -31 -37 -35 -40 -3 -3 -61 -75 -128 -160 -67 -85 -129 -163 -137 -173
-8 -9 -14 -21 -14 -26 0 -5 -4 -11 -8 -13 -11 -4 -153 -206 -151 -214 0 -4 -4
-10 -9 -13 -5 -3 -28 -35 -51 -71 -22 -36 -44 -70 -49 -75 -12 -15 -105 -172
-175 -295 -70 -125 -209 -407 -214 -434 -2 -11 -7 -24 -12 -30 -13 -16 -138
-341 -131 -341 0 0 -9 -27 -20 -60 -18 -53 -33 -102 -71 -245 -5 -19 -11 -44
-13 -55 -2 -11 -11 -56 -20 -100 -9 -44 -18 -89 -20 -101 -2 -12 -7 -45 -11
-74 -4 -29 -8 -61 -10 -70 -26 -137 -27 -644 0 -779 2 -13 7 -49 11 -80 3 -31
8 -58 9 -61 2 -3 6 -26 10 -50 15 -105 115 -448 155 -535 5 -11 21 -49 36 -85
37 -90 168 -354 184 -370 3 -3 14 -21 24 -40 62 -113 290 -436 343 -487 13
-12 23 -26 23 -30 0 -4 19 -29 43 -54 23 -25 77 -84 120 -132 71 -78 253 -260
318 -319 89 -79 144 -128 185 -163 26 -22 52 -45 58 -50 6 -6 42 -35 81 -65
92 -72 105 -83 120 -97 8 -7 18 -13 23 -13 6 0 12 -3 14 -7 4 -11 201 -155
318 -234 52 -35 97 -67 98 -71 2 -5 10 -8 18 -8 8 0 14 -4 14 -9 0 -5 8 -11
18 -15 9 -3 51 -28 92 -55 121 -80 263 -164 276 -164 13 0 290 169 312 190 7
7 20 13 28 13 8 0 14 3 14 8 0 4 9 12 20 17 24 12 220 145 237 162 7 6 29 21
50 34 20 13 45 30 54 39 9 8 39 31 66 50 52 38 225 171 233 180 3 3 30 25 60
50 30 25 71 59 90 76 19 17 62 55 95 84 33 29 72 66 88 82 15 15 29 28 31 28
11 0 271 272 367 385 19 22 36 42 39 45 27 27 169 213 220 290 24 36 46 67 50
70 4 3 20 27 36 53 16 27 39 65 52 85 12 21 32 55 43 77 12 22 25 42 28 45 6
5 79 151 100 200 6 14 15 32 20 40 5 8 19 40 31 70 12 30 28 69 35 85 7 17 21
53 30 80 9 28 21 59 26 70 14 33 66 220 76 270 2 11 8 36 13 55 5 19 12 51 15
70 3 19 8 46 10 60 10 46 17 95 20 135 2 22 4 40 5 40 7 0 14 181 14 350 0
204 -5 290 -25 425 -16 116 -19 135 -25 160 -3 14 -6 26 -6 27 0 2 -6 29 -13
61 -8 33 -17 72 -20 88 -3 16 -7 34 -9 39 -2 6 -6 24 -10 40 -10 39 -55 193
-66 225 -44 127 -80 224 -122 325 -57 137 -187 407 -201 416 -5 3 -8 8 -6 10
6 11 -197 361 -213 367 -4 2 -8 8 -8 13 0 9 -84 142 -105 165 -10 12 -102 144
-120 172 -5 9 -14 21 -20 27 -5 6 -21 28 -35 48 -14 20 -28 37 -32 37 -5 0 -8
6 -8 14 0 8 -3 16 -8 18 -4 2 -23 23 -42 48 -19 25 -37 47 -40 50 -3 3 -17 21
-31 40 -15 19 -35 45 -45 57 -11 12 -26 30 -34 40 -41 50 -117 140 -135 159
-11 12 -45 50 -75 84 -187 215 -556 579 -790 780 -35 30 -82 71 -104 91 -62
54 -259 209 -267 209 -4 0 -9 -3 -11 -7z"/>
</g>
</svg>
